<?xml version="1.0" encoding="UTF-8" standalone="no"?><!DOCTYPE svg PUBLIC "-//W3C//DTD SVG 1.1//EN" "http://www.w3.org/Graphics/SVG/1.1/DTD/svg11.dtd"><!-- Generated by graphviz version 2.40.1 (20161225.0304)
 --><!-- Title: G Pages: 1 --><svg xmlns="http://www.w3.org/2000/svg" xmlns:xlink="http://www.w3.org/1999/xlink" width="2115pt" height="1705pt" viewBox="0.00 0.00 2115.46 1704.74">
<g id="graph0" class="graph" transform="scale(1 1) rotate(0) translate(4 1700.7398)">
<title>G</title>
<polygon fill="#ffffff" stroke="transparent" points="-4,4 -4,-1700.7398 2111.4575,-1700.7398 2111.4575,4 -4,4"/>
<!-- :app -->
<g id="node1" class="node">
<title>:app</title>
<ellipse fill="none" stroke="#ff0000" stroke-width="2" cx="27.6638" cy="-584.3524" rx="27.8286" ry="18"/>
<text text-anchor="middle" x="27.6638" y="-580.1524" font-family="Times,serif" font-size="14.00" fill="#000000">:app</text>
</g>
<!-- :branding:core -->
<g id="node2" class="node">
<title>:branding:core</title>
<ellipse fill="none" stroke="#000000" cx="217.1041" cy="-930.3524" rx="67.1965" ry="18"/>
<text text-anchor="middle" x="217.1041" y="-926.1524" font-family="Times,serif" font-size="14.00" fill="#000000">:branding:core</text>
</g>
<!-- :app&#45;&gt;:branding:core -->
<g id="edge1" class="edge">
<title>:app-&gt;:branding:core</title>
<path fill="none" stroke="#000000" d="M29.9912,-602.4813C37.2309,-656.6302 60.716,-815.9802 91.3277,-857.3524 109.8516,-882.3878 139.726,-900.2455 165.7119,-912.0301"/>
<polygon fill="#000000" stroke="#000000" points="164.515,-915.326 175.0816,-916.099 167.3033,-908.9053 164.515,-915.326"/>
</g>
<!-- :core -->
<g id="node3" class="node">
<title>:core</title>
<ellipse fill="none" stroke="#000000" cx="454.8234" cy="-972.3524" rx="30.1746" ry="18"/>
<text text-anchor="middle" x="454.8234" y="-968.1524" font-family="Times,serif" font-size="14.00" fill="#000000">:core</text>
</g>
<!-- :app&#45;&gt;:core -->
<g id="edge2" class="edge">
<title>:app-&gt;:core</title>
<path fill="none" stroke="#000000" d="M30.9397,-602.441C37.5031,-634.3966 54.8714,-701.5891 91.3277,-745.3524 94.4645,-749.118 338.8809,-900.5854 425.1111,-953.9664"/>
<polygon fill="#000000" stroke="#000000" points="423.309,-956.9671 433.654,-959.2544 426.9932,-951.0151 423.309,-956.9671"/>
</g>
<!-- :design:branding -->
<g id="node14" class="node">
<title>:design:branding</title>
<ellipse fill="none" stroke="#000000" cx="454.8234" cy="-607.3524" rx="75.8856" ry="18"/>
<text text-anchor="middle" x="454.8234" y="-603.1524" font-family="Times,serif" font-size="14.00" fill="#000000">:design:branding</text>
</g>
<!-- :app&#45;&gt;:design:branding -->
<g id="edge13" class="edge">
<title>:app-&gt;:design:branding</title>
<path fill="none" stroke="#000000" d="M55.2363,-586.1483C66.4347,-586.8611 79.4975,-587.6716 91.3277,-588.3524 186.8312,-593.8485 296.4899,-599.4883 370.1686,-603.1801"/>
<polygon fill="#000000" stroke="#000000" points="370.1586,-606.6839 380.3209,-603.6878 370.5083,-599.6926 370.1586,-606.6839"/>
</g>
<!-- :design:themes -->
<g id="node15" class="node">
<title>:design:themes</title>
<ellipse fill="none" stroke="#000000" cx="988.8399" cy="-584.3524" rx="68.9371" ry="18"/>
<text text-anchor="middle" x="988.8399" y="-580.1524" font-family="Times,serif" font-size="14.00" fill="#000000">:design:themes</text>
</g>
<!-- :app&#45;&gt;:design:themes -->
<g id="edge14" class="edge">
<title>:app-&gt;:design:themes</title>
<path fill="none" stroke="#000000" d="M30.3132,-566.2951C37.5917,-519.4521 59.4908,-396.0332 91.3277,-372.3524 181.0343,-305.6272 231.9178,-358.6855 342.8806,-372.3524 444.6815,-384.8909 466.8963,-404.9716 566.7661,-428.3524 668.2562,-452.1126 706.4188,-424.8954 795.9014,-478.3524 817.0074,-490.9612 811.9591,-505.9737 831.9014,-520.3524 861.7299,-541.8593 899.8368,-557.6202 931.0306,-568.1198"/>
<polygon fill="#000000" stroke="#000000" points="930.3037,-571.5644 940.8962,-571.3445 932.4785,-564.9108 930.3037,-571.5644"/>
</g>
<!-- :feature&#45;flags -->
<g id="node16" class="node">
<title>:feature-flags</title>
<ellipse fill="none" stroke="#000000" cx="454.8234" cy="-1308.3524" rx="62.5122" ry="18"/>
<text text-anchor="middle" x="454.8234" y="-1304.1524" font-family="Times,serif" font-size="14.00" fill="#000000">:feature-flags</text>
</g>
<!-- :app&#45;&gt;:feature&#45;flags -->
<g id="edge15" class="edge">
<title>:app-&gt;:feature-flags</title>
<path fill="none" stroke="#000000" d="M29.2449,-602.383C35.2324,-668.0714 57.8831,-894.0369 91.3277,-957.3524 172.4365,-1110.9035 345.452,-1236.8572 419.7429,-1286.0815"/>
<polygon fill="#000000" stroke="#000000" points="418.0205,-1289.1376 428.3006,-1291.7008 421.8627,-1283.2863 418.0205,-1289.1376"/>
</g>
<!-- :features:rentable&#45;equipment -->
<g id="node17" class="node">
<title>:features:rentable-equipment</title>
<ellipse fill="none" stroke="#000000" cx="217.1041" cy="-718.3524" rx="122.0843" ry="18"/>
<text text-anchor="middle" x="217.1041" y="-714.1524" font-family="Times,serif" font-size="14.00" fill="#000000">:features:rentable-equipment</text>
</g>
<!-- :app&#45;&gt;:features:rentable&#45;equipment -->
<g id="edge16" class="edge">
<title>:app-&gt;:features:rentable-equipment</title>
<path fill="none" stroke="#000000" d="M34.8128,-601.9484C44.4736,-623.5482 63.7235,-659.8294 91.3277,-680.3524 103.0035,-689.0331 116.6687,-695.7471 130.6073,-700.9355"/>
<polygon fill="#000000" stroke="#000000" points="129.6849,-704.32 140.2797,-704.2891 131.9781,-697.7063 129.6849,-704.32"/>
</g>
<!-- :features:reservation&#45;calendar -->
<g id="node18" class="node">
<title>:features:reservation-calendar</title>
<ellipse fill="none" stroke="#000000" cx="217.1041" cy="-653.3524" rx="125.5533" ry="18"/>
<text text-anchor="middle" x="217.1041" y="-649.1524" font-family="Times,serif" font-size="14.00" fill="#000000">:features:reservation-calendar</text>
</g>
<!-- :app&#45;&gt;:features:reservation&#45;calendar -->
<g id="edge17" class="edge">
<title>:app-&gt;:features:reservation-calendar</title>
<path fill="none" stroke="#000000" d="M47.0087,-597.4941C59.268,-605.3335 75.7061,-614.9712 91.3277,-621.3524 105.1873,-627.0139 120.3255,-631.8922 135.145,-636.0125"/>
<polygon fill="#000000" stroke="#000000" points="134.2552,-639.3975 144.8208,-638.6113 136.071,-632.6371 134.2552,-639.3975"/>
</g>
<!-- :features:superior&#45;login -->
<g id="node19" class="node">
<title>:features:superior-login</title>
<ellipse fill="none" stroke="#000000" cx="217.1041" cy="-507.3524" rx="101.8399" ry="18"/>
<text text-anchor="middle" x="217.1041" y="-503.1524" font-family="Times,serif" font-size="14.00" fill="#000000">:features:superior-login</text>
</g>
<!-- :app&#45;&gt;:features:superior&#45;login -->
<g id="edge18" class="edge">
<title>:app-&gt;:features:superior-login</title>
<path fill="none" stroke="#000000" d="M43.0374,-568.9507C55.1522,-557.693 73.0055,-542.947 91.3277,-534.3524 102.7352,-529.0014 115.2234,-524.6975 127.762,-521.2392"/>
<polygon fill="#000000" stroke="#000000" points="129.0025,-524.5337 137.8088,-518.6431 127.2512,-517.7563 129.0025,-524.5337"/>
</g>
<!-- :libs:countrypicker -->
<g id="node20" class="node">
<title>:libs:countrypicker</title>
<ellipse fill="none" stroke="#000000" cx="217.1041" cy="-453.3524" rx="83.9663" ry="18"/>
<text text-anchor="middle" x="217.1041" y="-449.1524" font-family="Times,serif" font-size="14.00" fill="#000000">:libs:countrypicker</text>
</g>
<!-- :app&#45;&gt;:libs:countrypicker -->
<g id="edge19" class="edge">
<title>:app-&gt;:libs:countrypicker</title>
<path fill="none" stroke="#000000" d="M33.5232,-566.5424C42.2362,-542.9723 60.9271,-501.8942 91.3277,-480.3524 102.5452,-472.4037 115.6406,-466.7165 129.0622,-462.6629"/>
<polygon fill="#000000" stroke="#000000" points="130.1422,-465.9963 138.8707,-459.9909 128.3023,-459.2424 130.1422,-465.9963"/>
</g>
<!-- :libs:material_calendar_view -->
<g id="node21" class="node">
<title>:libs:material_calendar_view</title>
<ellipse fill="none" stroke="#000000" cx="217.1041" cy="-399.3524" rx="123.2456" ry="18"/>
<text text-anchor="middle" x="217.1041" y="-395.1524" font-family="Times,serif" font-size="14.00" fill="#000000">:libs:material_calendar_view</text>
</g>
<!-- :app&#45;&gt;:libs:material_calendar_view -->
<g id="edge20" class="edge">
<title>:app-&gt;:libs:material_calendar_view</title>
<path fill="none" stroke="#000000" d="M29.4998,-566.2617C33.8688,-533.1413 47.9978,-462.8198 91.3277,-426.3524 96.9078,-421.6561 103.1109,-417.7186 109.6873,-414.4227"/>
<polygon fill="#000000" stroke="#000000" points="111.1661,-417.5955 118.8631,-410.315 108.3059,-411.2065 111.1661,-417.5955"/>
</g>
<!-- :libs:simpleratingbar -->
<g id="node22" class="node">
<title>:libs:simpleratingbar</title>
<ellipse fill="none" stroke="#000000" cx="1622.5904" cy="-354.3524" rx="90.9225" ry="18"/>
<text text-anchor="middle" x="1622.5904" y="-350.1524" font-family="Times,serif" font-size="14.00" fill="#000000">:libs:simpleratingbar</text>
</g>
<!-- :app&#45;&gt;:libs:simpleratingbar -->
<g id="edge21" class="edge">
<title>:app-&gt;:libs:simpleratingbar</title>
<path fill="none" stroke="#000000" d="M28.4771,-566.3141C31.185,-523.1992 42.7406,-412.1278 91.3277,-336.3524 203.6331,-161.2034 246.7616,-41.3524 454.8234,-41.3524 454.8234,-41.3524 454.8234,-41.3524 988.8399,-41.3524 1194.4889,-41.3524 1299.8232,68.5223 1450.5766,-71.3524 1534.8034,-149.5012 1407.6489,-243.8551 1486.5766,-327.3524 1496.2912,-337.6294 1508.709,-344.6117 1522.0779,-349.2701"/>
<polygon fill="#000000" stroke="#000000" points="1521.3703,-352.7129 1531.9557,-352.2654 1523.4017,-346.0141 1521.3703,-352.7129"/>
</g>
<!-- :sumsub:core -->
<g id="node23" class="node">
<title>:sumsub:core</title>
<ellipse fill="none" stroke="#000000" cx="217.1041" cy="-561.3524" rx="62.5585" ry="18"/>
<text text-anchor="middle" x="217.1041" y="-557.1524" font-family="Times,serif" font-size="14.00" fill="#000000">:sumsub:core</text>
</g>
<!-- :app&#45;&gt;:sumsub:core -->
<g id="edge22" class="edge">
<title>:app-&gt;:sumsub:core</title>
<path fill="none" stroke="#000000" d="M55.2101,-581.008C79.7484,-578.0288 116.6786,-573.5451 149.0736,-569.612"/>
<polygon fill="#000000" stroke="#000000" points="149.9054,-573.0368 159.4107,-568.357 149.0617,-566.0879 149.9054,-573.0368"/>
</g>
<!-- :branding:core&#45;&gt;:core -->
<g id="edge23" class="edge">
<title>:branding:core-&gt;:core</title>
<path fill="none" stroke="#000000" d="M273.4403,-940.3058C317.3007,-948.0551 377.0401,-958.6098 415.7692,-965.4524"/>
<polygon fill="#000000" stroke="#000000" points="415.1658,-968.8999 425.6222,-967.1932 416.3837,-962.0067 415.1658,-968.8999"/>
</g>
<!-- :core:analytics -->
<g id="node4" class="node">
<title>:core:analytics</title>
<ellipse fill="none" stroke="#000000" cx="988.8399" cy="-1186.3524" rx="67.1888" ry="18"/>
<text text-anchor="middle" x="988.8399" y="-1182.1524" font-family="Times,serif" font-size="14.00" fill="#000000">:core:analytics</text>
</g>
<!-- :core&#45;&gt;:core:analytics -->
<g id="edge3" class="edge">
<title>:core-&gt;:core:analytics</title>
<path fill="none" stroke="#000000" d="M466.9573,-988.9981C485.6376,-1013.4063 523.8108,-1058.6774 566.7661,-1083.3524 677.0215,-1146.6869 825.0903,-1171.2729 913.3637,-1180.679"/>
<polygon fill="#000000" stroke="#000000" points="913.2564,-1184.1863 923.5616,-1181.7264 913.9716,-1177.2229 913.2564,-1184.1863"/>
</g>
<!-- :core:api -->
<g id="node5" class="node">
<title>:core:api</title>
<ellipse fill="none" stroke="#000000" cx="1316.1775" cy="-1354.3524" rx="44.6395" ry="18"/>
<text text-anchor="middle" x="1316.1775" y="-1350.1524" font-family="Times,serif" font-size="14.00" fill="#000000">:core:api</text>
</g>
<!-- :core&#45;&gt;:core:api -->
<g id="edge4" class="edge">
<title>:core-&gt;:core:api</title>
<path fill="none" stroke="#000000" d="M458.6193,-990.5639C471.9305,-1052.6997 518.3116,-1254.8543 566.7661,-1297.3524 669.6718,-1387.6082 1107.2542,-1368.2106 1261.8283,-1358.271"/>
<polygon fill="#000000" stroke="#000000" points="1262.278,-1361.7491 1272.0276,-1357.6023 1261.82,-1354.7641 1262.278,-1361.7491"/>
</g>
<!-- :core:common -->
<g id="node6" class="node">
<title>:core:common</title>
<ellipse fill="none" stroke="#000000" cx="1622.5904" cy="-1209.3524" rx="66.6344" ry="18"/>
<text text-anchor="middle" x="1622.5904" y="-1205.1524" font-family="Times,serif" font-size="14.00" fill="#000000">:core:common</text>
</g>
<!-- :core&#45;&gt;:core:common -->
<g id="edge5" class="edge">
<title>:core-&gt;:core:common</title>
<path fill="none" stroke="#000000" d="M485.4486,-972.7758C545.2273,-973.7867 681.6061,-976.9988 795.9014,-986.3524 1092.6419,-1010.6368 1173.7609,-1018.7269 1450.5766,-1128.3524 1496.7229,-1146.6274 1548.0031,-1171.3785 1582.4666,-1188.6936"/>
<polygon fill="#000000" stroke="#000000" points="1581.2188,-1191.9844 1591.7228,-1193.3685 1584.3746,-1185.7361 1581.2188,-1191.9844"/>
</g>
<!-- :core:database -->
<g id="node7" class="node">
<title>:core:database</title>
<ellipse fill="none" stroke="#000000" cx="988.8399" cy="-1506.3524" rx="66.0281" ry="18"/>
<text text-anchor="middle" x="988.8399" y="-1502.1524" font-family="Times,serif" font-size="14.00" fill="#000000">:core:database</text>
</g>
<!-- :core&#45;&gt;:core:database -->
<g id="edge6" class="edge">
<title>:core-&gt;:core:database</title>
<path fill="none" stroke="#000000" d="M459.6335,-990.3804C472.2075,-1037.8172 506.743,-1170.1179 530.7661,-1281.3524 549.1862,-1366.6433 501.8042,-1416.0963 566.7661,-1474.3524 616.2553,-1518.733 806.5884,-1516.3678 913.9821,-1511.1625"/>
<polygon fill="#000000" stroke="#000000" points="914.2977,-1514.6511 924.1086,-1510.6514 913.9448,-1507.66 914.2977,-1514.6511"/>
</g>
<!-- :core:extensions -->
<g id="node8" class="node">
<title>:core:extensions</title>
<ellipse fill="none" stroke="#000000" cx="681.3338" cy="-873.3524" rx="73.5734" ry="18"/>
<text text-anchor="middle" x="681.3338" y="-869.1524" font-family="Times,serif" font-size="14.00" fill="#000000">:core:extensions</text>
</g>
<!-- :core&#45;&gt;:core:extensions -->
<g id="edge7" class="edge">
<title>:core-&gt;:core:extensions</title>
<path fill="none" stroke="#000000" d="M474.5815,-958.2945C496.2954,-943.3897 532.6383,-920.0174 566.7661,-905.3524 582.4003,-898.6343 599.8394,-892.9257 616.3017,-888.2728"/>
<polygon fill="#000000" stroke="#000000" points="617.6774,-891.5252 626.4008,-885.5125 615.8318,-884.7729 617.6774,-891.5252"/>
</g>
<!-- :core:models -->
<g id="node9" class="node">
<title>:core:models</title>
<ellipse fill="none" stroke="#000000" cx="2046.5419" cy="-1476.3524" rx="60.8313" ry="18"/>
<text text-anchor="middle" x="2046.5419" y="-1472.1524" font-family="Times,serif" font-size="14.00" fill="#000000">:core:models</text>
</g>
<!-- :core&#45;&gt;:core:models -->
<g id="edge8" class="edge">
<title>:core-&gt;:core:models</title>
<path fill="none" stroke="#000000" d="M459.802,-990.3452C472.7828,-1037.6969 508.2159,-1169.81 530.7661,-1281.3524 540.8436,-1331.1994 529.7397,-1472.491 566.7661,-1507.3524 953.0759,-1871.0741 1228.6632,-1602.6428 1758.6042,-1576.3524 1843.817,-1572.125 1870.966,-1590.3927 1949.6263,-1557.3524 1978.992,-1545.0178 2006.2339,-1520.6043 2024.3085,-1501.7894"/>
<polygon fill="#000000" stroke="#000000" points="2027.204,-1503.8169 2031.473,-1494.1202 2022.0888,-1499.0384 2027.204,-1503.8169"/>
</g>
<!-- :core:preferences -->
<g id="node10" class="node">
<title>:core:preferences</title>
<ellipse fill="none" stroke="#000000" cx="1872.1152" cy="-1289.3524" rx="77.5221" ry="18"/>
<text text-anchor="middle" x="1872.1152" y="-1285.1524" font-family="Times,serif" font-size="14.00" fill="#000000">:core:preferences</text>
</g>
<!-- :core&#45;&gt;:core:preferences -->
<g id="edge9" class="edge">
<title>:core-&gt;:core:preferences</title>
<path fill="none" stroke="#000000" d="M459.0662,-990.2883C475.9385,-1060.9447 538.7186,-1317.3687 566.7661,-1341.3524 865.6107,-1596.8979 1057.8964,-1401.6948 1450.5766,-1381.3524 1588.0302,-1374.2318 1626.9073,-1389.3539 1758.6042,-1349.3524 1786.91,-1340.7548 1816.3742,-1324.9461 1838.1884,-1311.7137"/>
<polygon fill="#000000" stroke="#000000" points="1840.0854,-1314.6558 1846.7462,-1306.4166 1836.4012,-1308.7037 1840.0854,-1314.6558"/>
</g>
<!-- :core:remote -->
<g id="node11" class="node">
<title>:core:remote</title>
<ellipse fill="none" stroke="#000000" cx="988.8399" cy="-1056.3524" rx="59.6666" ry="18"/>
<text text-anchor="middle" x="988.8399" y="-1052.1524" font-family="Times,serif" font-size="14.00" fill="#000000">:core:remote</text>
</g>
<!-- :core&#45;&gt;:core:remote -->
<g id="edge10" class="edge">
<title>:core-&gt;:core:remote</title>
<path fill="none" stroke="#000000" d="M484.2951,-976.9883C568.2391,-990.1925 809.9736,-1028.217 925.6692,-1046.4158"/>
<polygon fill="#000000" stroke="#000000" points="925.3701,-1049.9117 935.7925,-1048.0082 926.4578,-1042.9967 925.3701,-1049.9117"/>
</g>
<!-- :core:repository -->
<g id="node12" class="node">
<title>:core:repository</title>
<ellipse fill="none" stroke="#000000" cx="681.3338" cy="-1270.3524" rx="72.3477" ry="18"/>
<text text-anchor="middle" x="681.3338" y="-1266.1524" font-family="Times,serif" font-size="14.00" fill="#000000">:core:repository</text>
</g>
<!-- :core&#45;&gt;:core:repository -->
<g id="edge11" class="edge">
<title>:core-&gt;:core:repository</title>
<path fill="none" stroke="#000000" d="M463.3589,-989.7068C480.5077,-1023.7603 521.4047,-1101.0082 566.7661,-1158.3524 592.9263,-1191.4232 628.2783,-1224.601 652.7627,-1246.1625"/>
<polygon fill="#000000" stroke="#000000" points="650.4678,-1248.8052 660.3049,-1252.74 655.0687,-1243.5295 650.4678,-1248.8052"/>
</g>
<!-- :core:ui -->
<g id="node13" class="node">
<title>:core:ui</title>
<ellipse fill="none" stroke="#000000" cx="681.3338" cy="-1056.3524" rx="40.5654" ry="18"/>
<text text-anchor="middle" x="681.3338" y="-1052.1524" font-family="Times,serif" font-size="14.00" fill="#000000">:core:ui</text>
</g>
<!-- :core&#45;&gt;:core:ui -->
<g id="edge12" class="edge">
<title>:core-&gt;:core:ui</title>
<path fill="none" stroke="#000000" d="M477.9383,-984.4406C500.2518,-995.7835 535.2043,-1012.7019 566.7661,-1024.3524 589.0103,-1032.5635 614.3471,-1039.8461 635.5279,-1045.3815"/>
<polygon fill="#000000" stroke="#000000" points="634.6935,-1048.7807 645.2497,-1047.8766 636.4338,-1042.0004 634.6935,-1048.7807"/>
</g>
<!-- :core:api&#45;&gt;:core:common -->
<g id="edge24" class="edge">
<title>:core:api-&gt;:core:common</title>
<path fill="none" stroke="#000000" d="M1345.2803,-1340.5805C1399.5595,-1314.8946 1516.4583,-1259.576 1579.7628,-1229.6192"/>
<polygon fill="#000000" stroke="#000000" points="1581.5306,-1232.6548 1589.0725,-1225.2137 1578.5364,-1226.3275 1581.5306,-1232.6548"/>
</g>
<!-- :core:api&#45;&gt;:core:models -->
<g id="edge25" class="edge">
<title>:core:api-&gt;:core:models</title>
<path fill="none" stroke="#000000" d="M1357.8026,-1361.3055C1479.8564,-1381.6933 1837.4002,-1441.4174 1983.3727,-1465.8006"/>
<polygon fill="#000000" stroke="#000000" points="1983.0709,-1469.2987 1993.5109,-1467.4941 1984.2242,-1462.3943 1983.0709,-1469.2987"/>
</g>
<!-- :core:api&#45;&gt;:core:preferences -->
<g id="edge26" class="edge">
<title>:core:api-&gt;:core:preferences</title>
<path fill="none" stroke="#000000" d="M1361.1518,-1354.2144C1441.5518,-1353.2785 1614.9632,-1348.1291 1758.6042,-1322.3524 1778.644,-1318.7562 1800.1987,-1312.9914 1819.0846,-1307.2789"/>
<polygon fill="#000000" stroke="#000000" points="1820.175,-1310.6053 1828.6953,-1304.3081 1818.1076,-1303.9175 1820.175,-1310.6053"/>
</g>
<!-- :core:common&#45;&gt;:core:preferences -->
<g id="edge27" class="edge">
<title>:core:common-&gt;:core:preferences</title>
<path fill="none" stroke="#000000" d="M1665.7694,-1223.196C1707.6139,-1236.6117 1771.2614,-1257.0178 1816.7976,-1271.6171"/>
<polygon fill="#000000" stroke="#000000" points="1815.9218,-1275.0117 1826.513,-1274.7319 1818.059,-1268.3459 1815.9218,-1275.0117"/>
</g>
<!-- :core:database&#45;&gt;:core:models -->
<g id="edge28" class="edge">
<title>:core:database-&gt;:core:models</title>
<path fill="none" stroke="#000000" d="M1047.8008,-1514.8332C1085.9269,-1519.8817 1136.6753,-1525.7893 1181.7783,-1528.3524 1522.4944,-1547.7149 1618.6536,-1611.5354 1949.6263,-1528.3524 1972.8614,-1522.5128 1996.601,-1509.9064 2014.7692,-1498.5689"/>
<polygon fill="#000000" stroke="#000000" points="2016.6947,-1501.492 2023.214,-1493.1404 2012.9095,-1495.6036 2016.6947,-1501.492"/>
</g>
<!-- :core:preferences&#45;&gt;:core:models -->
<g id="edge29" class="edge">
<title>:core:preferences-&gt;:core:models</title>
<path fill="none" stroke="#000000" d="M1888.5249,-1306.9449C1919.6407,-1340.3037 1987.3065,-1412.8472 2023.1597,-1451.2848"/>
<polygon fill="#000000" stroke="#000000" points="2020.9225,-1454.0176 2030.3029,-1458.9429 2026.0414,-1449.2429 2020.9225,-1454.0176"/>
</g>
<!-- :core:remote&#45;&gt;:core:api -->
<g id="edge30" class="edge">
<title>:core:remote-&gt;:core:api</title>
<path fill="none" stroke="#000000" d="M1017.9718,-1072.2472C1050.7853,-1090.8585 1104.8658,-1123.7068 1145.7783,-1159.3524 1207.7034,-1213.3055 1268.0214,-1289.5569 1297.4915,-1328.8073"/>
<polygon fill="#000000" stroke="#000000" points="1294.854,-1331.1254 1303.636,-1337.0523 1300.4668,-1326.9425 1294.854,-1331.1254"/>
</g>
<!-- :core:remote&#45;&gt;:core:common -->
<g id="edge31" class="edge">
<title>:core:remote-&gt;:core:common</title>
<path fill="none" stroke="#000000" d="M1048.1946,-1058.9767C1079.1243,-1062.599 1116.4973,-1070.6767 1145.7783,-1088.3524 1167.4096,-1101.4103 1159.965,-1119.6009 1181.7783,-1132.3524 1185.8199,-1134.715 1433.8758,-1177.2058 1556.0509,-1198.0321"/>
<polygon fill="#000000" stroke="#000000" points="1555.6023,-1201.506 1566.0482,-1199.7358 1556.7783,-1194.6055 1555.6023,-1201.506"/>
</g>
<!-- :core:remote&#45;&gt;:core:models -->
<g id="edge32" class="edge">
<title>:core:remote-&gt;:core:models</title>
<path fill="none" stroke="#000000" d="M1038.9907,-1046.5206C1166.1299,-1024.0793 1508.6841,-979.2517 1758.6042,-1091.3524 1862.5709,-1137.9863 1882.2244,-1170.4787 1949.6263,-1262.3524 1993.7559,-1322.5043 2024.3019,-1405.9527 2038.1458,-1448.6956"/>
<polygon fill="#000000" stroke="#000000" points="2034.8656,-1449.9304 2041.2278,-1458.4023 2041.5373,-1447.812 2034.8656,-1449.9304"/>
</g>
<!-- :core:remote&#45;&gt;:core:preferences -->
<g id="edge33" class="edge">
<title>:core:remote-&gt;:core:preferences</title>
<path fill="none" stroke="#000000" d="M1048.4104,-1054.5001C1182.6664,-1052.7171 1516.065,-1061.8244 1758.6042,-1182.3524 1797.3893,-1201.6264 1832.0137,-1238.5757 1852.54,-1263.5955"/>
<polygon fill="#000000" stroke="#000000" points="1849.9584,-1265.9707 1858.9463,-1271.5803 1855.4184,-1261.5901 1849.9584,-1265.9707"/>
</g>
<!-- :design:l10n -->
<g id="node24" class="node">
<title>:design:l10n</title>
<ellipse fill="none" stroke="#000000" cx="1622.5904" cy="-844.3524" rx="58.5694" ry="18"/>
<text text-anchor="middle" x="1622.5904" y="-840.1524" font-family="Times,serif" font-size="14.00" fill="#000000">:design:l10n</text>
</g>
<!-- :core:remote&#45;&gt;:design:l10n -->
<g id="edge34" class="edge">
<title>:core:remote-&gt;:design:l10n</title>
<path fill="none" stroke="#000000" d="M1042.3498,-1048.2787C1159.9484,-1030.435 1431.9759,-988.5715 1450.5766,-980.3524 1510.9274,-953.6855 1568.4023,-900.7926 1599.2347,-869.4061"/>
<polygon fill="#000000" stroke="#000000" points="1602.0428,-871.5375 1606.4849,-861.9189 1597.0141,-866.668 1602.0428,-871.5375"/>
</g>
<!-- :core:repository&#45;&gt;:core:analytics -->
<g id="edge35" class="edge">
<title>:core:repository-&gt;:core:analytics</title>
<path fill="none" stroke="#000000" d="M720.5173,-1255.2318C750.6485,-1243.9938 793.4873,-1228.8533 831.9014,-1218.3524 861.046,-1210.3855 893.7226,-1203.4168 921.6826,-1198.0341"/>
<polygon fill="#000000" stroke="#000000" points="922.5823,-1201.426 931.755,-1196.1239 921.2779,-1194.5486 922.5823,-1201.426"/>
</g>
<!-- :core:repository&#45;&gt;:core:api -->
<g id="edge36" class="edge">
<title>:core:repository-&gt;:core:api</title>
<path fill="none" stroke="#000000" d="M717.6951,-1285.9825C747.7263,-1298.1367 791.7815,-1314.2507 831.9014,-1322.3524 985.1896,-1353.3072 1170.7531,-1356.1977 1261.2238,-1355.4464"/>
<polygon fill="#000000" stroke="#000000" points="1261.289,-1358.946 1271.2529,-1355.3447 1261.2179,-1351.9464 1261.289,-1358.946"/>
</g>
<!-- :core:repository&#45;&gt;:core:common -->
<g id="edge37" class="edge">
<title>:core:repository-&gt;:core:common</title>
<path fill="none" stroke="#000000" d="M751.312,-1265.8173C924.0251,-1254.6243 1369.4327,-1225.7588 1547.4475,-1214.2222"/>
<polygon fill="#000000" stroke="#000000" points="1547.7558,-1217.7097 1557.5085,-1213.5702 1547.303,-1210.7243 1547.7558,-1217.7097"/>
</g>
<!-- :core:repository&#45;&gt;:core:database -->
<g id="edge38" class="edge">
<title>:core:repository-&gt;:core:database</title>
<path fill="none" stroke="#000000" d="M693.6995,-1288.3322C717.2395,-1321.4394 771.5566,-1392.6465 831.9014,-1436.3524 863.6518,-1459.3483 904.1575,-1477.1802 936.0645,-1489.0904"/>
<polygon fill="#000000" stroke="#000000" points="935.0774,-1492.4559 945.6713,-1492.5957 937.4769,-1485.88 935.0774,-1492.4559"/>
</g>
<!-- :core:repository&#45;&gt;:core:models -->
<g id="edge39" class="edge">
<title>:core:repository-&gt;:core:models</title>
<path fill="none" stroke="#000000" d="M709.9731,-1287.0426C739.8953,-1304.1739 788.4456,-1331.1137 831.9014,-1351.3524 869.8213,-1369.0129 1140.6931,-1482.4901 1181.7783,-1490.3524 1476.4786,-1546.7483 1838.0113,-1506.5706 1982.4765,-1486.2241"/>
<polygon fill="#000000" stroke="#000000" points="1983.0932,-1489.6716 1992.499,-1484.795 1982.105,-1482.7417 1983.0932,-1489.6716"/>
</g>
<!-- :core:repository&#45;&gt;:core:preferences -->
<g id="edge40" class="edge">
<title>:core:repository-&gt;:core:preferences</title>
<path fill="none" stroke="#000000" d="M753.0083,-1272.8244C850.1555,-1276.068 1029.0458,-1281.6633 1181.7783,-1284.3524 1398.2105,-1288.1632 1652.8603,-1289.0856 1784.0765,-1289.2984"/>
<polygon fill="#000000" stroke="#000000" points="1784.4569,-1292.7989 1794.4622,-1289.3142 1784.4676,-1285.7989 1784.4569,-1292.7989"/>
</g>
<!-- :core:repository&#45;&gt;:core:remote -->
<g id="edge41" class="edge">
<title>:core:repository-&gt;:core:remote</title>
<path fill="none" stroke="#000000" d="M703.7578,-1253.2273C732.9345,-1231.0832 785.6545,-1191.5399 831.9014,-1159.3524 873.4672,-1130.423 922.3954,-1098.664 954.4334,-1078.1693"/>
<polygon fill="#000000" stroke="#000000" points="956.4564,-1081.0304 963.0018,-1072.6992 952.6896,-1075.1302 956.4564,-1081.0304"/>
</g>
<!-- :core:ui&#45;&gt;:core:common -->
<g id="edge42" class="edge">
<title>:core:ui-&gt;:core:common</title>
<path fill="none" stroke="#000000" d="M718.6967,-1063.4951C749.1199,-1069.2043 793.2101,-1077.2357 831.9014,-1083.3524 970.978,-1105.339 1022.5478,-1058.2352 1145.7783,-1126.3524 1167.5921,-1138.4103 1159.695,-1157.7956 1181.7783,-1169.3524 1243.0359,-1201.4101 1435.9745,-1208.1638 1545.2076,-1209.3471"/>
<polygon fill="#000000" stroke="#000000" points="1545.4772,-1212.8498 1555.51,-1209.4449 1545.5437,-1205.8501 1545.4772,-1212.8498"/>
</g>
<!-- :core:ui&#45;&gt;:core:models -->
<g id="edge43" class="edge">
<title>:core:ui-&gt;:core:models</title>
<path fill="none" stroke="#000000" d="M694.0497,-1073.6436C717.9569,-1105.1268 772.5682,-1172.332 831.9014,-1213.3524 956.6684,-1299.611 1018.9159,-1264.2063 1145.7783,-1347.3524 1164.1851,-1359.4163 1161.8979,-1371.9123 1181.7783,-1381.3524 1322.0565,-1447.9628 1794.9372,-1468.8587 1975.5816,-1474.5026"/>
<polygon fill="#000000" stroke="#000000" points="1975.6646,-1478.0067 1985.767,-1474.8143 1975.8788,-1471.01 1975.6646,-1478.0067"/>
</g>
<!-- :core:ui&#45;&gt;:core:preferences -->
<g id="edge44" class="edge">
<title>:core:ui-&gt;:core:preferences</title>
<path fill="none" stroke="#000000" d="M721.637,-1058.3152C744.6188,-1060.8861 773.2607,-1066.6361 795.9014,-1079.3524 816.4685,-1090.9041 810.9523,-1107.509 831.9014,-1118.3524 956.8426,-1183.0227 1022.048,-1092.3947 1145.7783,-1159.3524 1167.4007,-1171.0536 1160.1378,-1189.6848 1181.7783,-1201.3524 1234.3698,-1229.7075 1617.8565,-1266.7839 1789.4771,-1282.1742"/>
<polygon fill="#000000" stroke="#000000" points="1789.2049,-1285.6638 1799.4768,-1283.0679 1789.8281,-1278.6915 1789.2049,-1285.6638"/>
</g>
<!-- :core:ui&#45;&gt;:core:remote -->
<g id="edge45" class="edge">
<title>:core:ui-&gt;:core:remote</title>
<path fill="none" stroke="#000000" d="M722.1682,-1056.3524C772.2067,-1056.3524 857.807,-1056.3524 918.5163,-1056.3524"/>
<polygon fill="#000000" stroke="#000000" points="918.7911,-1059.8525 928.791,-1056.3524 918.791,-1052.8525 918.7911,-1059.8525"/>
</g>
<!-- :core:ui&#45;&gt;:design:themes -->
<g id="edge47" class="edge">
<title>:core:ui-&gt;:design:themes</title>
<path fill="none" stroke="#000000" d="M694.8925,-1038.9235C716.8632,-1010.4577 761.2742,-951.9799 795.9014,-900.3524 865.9641,-795.8925 941.6463,-666.497 973.4218,-611.3186"/>
<polygon fill="#000000" stroke="#000000" points="976.5379,-612.9207 978.4861,-602.5065 970.4687,-609.4327 976.5379,-612.9207"/>
</g>
<!-- :core:ui&#45;&gt;:design:l10n -->
<g id="edge46" class="edge">
<title>:core:ui-&gt;:design:l10n</title>
<path fill="none" stroke="#000000" d="M717.6554,-1048.1717C861.1604,-1015.8499 1389.369,-896.8811 1565.2172,-857.2746"/>
<polygon fill="#000000" stroke="#000000" points="1566.068,-860.6708 1575.0545,-855.059 1564.5298,-853.8419 1566.068,-860.6708"/>
</g>
<!-- :design:branding&#45;&gt;:core:common -->
<g id="edge50" class="edge">
<title>:design:branding-&gt;:core:common</title>
<path fill="none" stroke="#000000" d="M475.1778,-624.8091C496.8099,-642.7321 532.5485,-670.5836 566.7661,-689.3524 751.5489,-790.708 1274.7534,-917.1465 1450.5766,-1033.3524 1515.0295,-1075.951 1574.2521,-1146.1814 1603.4761,-1183.7551"/>
<polygon fill="#000000" stroke="#000000" points="1600.7107,-1185.9004 1609.5813,-1191.6937 1606.2595,-1181.6331 1600.7107,-1185.9004"/>
</g>
<!-- :design:branding&#45;&gt;:core:preferences -->
<g id="edge51" class="edge">
<title>:design:branding-&gt;:core:preferences</title>
<path fill="none" stroke="#000000" d="M510.2867,-619.7356C577.9672,-635.0652 695.7655,-662.4531 795.9014,-689.3524 952.5723,-731.4387 1023.1407,-687.1591 1145.7783,-793.3524 1174.642,-818.3458 1151.1818,-848.5131 1181.7783,-871.3524 1278.5155,-943.5636 1336.6769,-870.36 1450.5766,-910.3524 1600.3964,-962.9571 1646.928,-978.4735 1758.6042,-1091.3524 1809.1924,-1142.4855 1845.113,-1220.6624 1861.7302,-1261.8174"/>
<polygon fill="#000000" stroke="#000000" points="1858.5112,-1263.195 1865.4443,-1271.2064 1865.0204,-1260.62 1858.5112,-1263.195"/>
</g>
<!-- :design:branding&#45;&gt;:design:themes -->
<g id="edge52" class="edge">
<title>:design:branding-&gt;:design:themes</title>
<path fill="none" stroke="#000000" d="M529.6384,-604.1302C630.0998,-599.8033 807.7804,-592.1506 910.1725,-587.7406"/>
<polygon fill="#000000" stroke="#000000" points="910.6093,-591.2251 920.4494,-587.298 910.3081,-584.2316 910.6093,-591.2251"/>
</g>
<!-- :branding:hoppygo:themes -->
<g id="node25" class="node">
<title>:branding:hoppygo:themes</title>
<ellipse fill="none" stroke="#000000" cx="681.3338" cy="-401.3524" rx="114.6353" ry="18"/>
<text text-anchor="middle" x="681.3338" y="-397.1524" font-family="Times,serif" font-size="14.00" fill="#000000">:branding:hoppygo:themes</text>
</g>
<!-- :design:branding&#45;&gt;:branding:hoppygo:themes -->
<g id="edge48" class="edge">
<title>:design:branding-&gt;:branding:hoppygo:themes</title>
<path fill="none" stroke="#000000" d="M475.6677,-589.9426C491.0489,-576.9921 512.4068,-558.791 530.7661,-542.3524 575.0964,-502.6601 625.3087,-455.0957 655.094,-426.5978"/>
<polygon fill="#000000" stroke="#000000" points="657.7716,-428.8795 662.5708,-419.4339 652.9288,-423.8251 657.7716,-428.8795"/>
</g>
<!-- :branding:skodago:themes -->
<g id="node26" class="node">
<title>:branding:skodago:themes</title>
<ellipse fill="none" stroke="#000000" cx="681.3338" cy="-244.3524" rx="112.906" ry="18"/>
<text text-anchor="middle" x="681.3338" y="-240.1524" font-family="Times,serif" font-size="14.00" fill="#000000">:branding:skodago:themes</text>
</g>
<!-- :design:branding&#45;&gt;:branding:skodago:themes -->
<g id="edge49" class="edge">
<title>:design:branding-&gt;:branding:skodago:themes</title>
<path fill="none" stroke="#000000" d="M482.3938,-590.4909C498.9221,-578.9548 518.9588,-562.1852 530.7661,-542.3524 569.829,-476.7384 532.4053,-442.5466 566.7661,-374.3524 587.9574,-332.2952 626.0734,-293.062 652.4904,-268.926"/>
<polygon fill="#000000" stroke="#000000" points="654.8429,-271.5176 659.9439,-262.2316 650.1654,-266.3097 654.8429,-271.5176"/>
</g>
<!-- :design:themes&#45;&gt;:design:l10n -->
<g id="edge57" class="edge">
<title>:design:themes-&gt;:design:l10n</title>
<path fill="none" stroke="#000000" d="M1014.1664,-601.2933C1050.2257,-624.8854 1118.9685,-667.9306 1181.7783,-696.3524 1316.2385,-757.1966 1483.4622,-806.6171 1568.0813,-829.9003"/>
<polygon fill="#000000" stroke="#000000" points="1567.4143,-833.3464 1577.9834,-832.6091 1569.2614,-826.5944 1567.4143,-833.3464"/>
</g>
<!-- :design:assets -->
<g id="node27" class="node">
<title>:design:assets</title>
<ellipse fill="none" stroke="#000000" cx="1316.1775" cy="-584.3524" rx="64.2785" ry="18"/>
<text text-anchor="middle" x="1316.1775" y="-580.1524" font-family="Times,serif" font-size="14.00" fill="#000000">:design:assets</text>
</g>
<!-- :design:themes&#45;&gt;:design:assets -->
<g id="edge53" class="edge">
<title>:design:themes-&gt;:design:assets</title>
<path fill="none" stroke="#000000" d="M1057.8598,-584.3524C1111.8056,-584.3524 1186.6529,-584.3524 1241.899,-584.3524"/>
<polygon fill="#000000" stroke="#000000" points="1241.9771,-587.8525 1251.977,-584.3524 1241.977,-580.8525 1241.9771,-587.8525"/>
</g>
<!-- :design:bottomnavbar -->
<g id="node28" class="node">
<title>:design:bottomnavbar</title>
<ellipse fill="none" stroke="#000000" cx="1316.1775" cy="-844.3524" rx="95.0081" ry="18"/>
<text text-anchor="middle" x="1316.1775" y="-840.1524" font-family="Times,serif" font-size="14.00" fill="#000000">:design:bottomnavbar</text>
</g>
<!-- :design:themes&#45;&gt;:design:bottomnavbar -->
<g id="edge54" class="edge">
<title>:design:themes-&gt;:design:bottomnavbar</title>
<path fill="none" stroke="#000000" d="M1006.7885,-602.2066C1037.0348,-632.7029 1099.3949,-697.3605 1145.7783,-757.3524 1163.6482,-780.4652 1157.8738,-795.5564 1181.7783,-812.3524 1194.416,-821.232 1209.1997,-827.6692 1224.2502,-832.3308"/>
<polygon fill="#000000" stroke="#000000" points="1223.5833,-835.7798 1234.1592,-835.1456 1225.4962,-829.0462 1223.5833,-835.7798"/>
</g>
<!-- :design:component&#45;attrs -->
<g id="node29" class="node">
<title>:design:component-attrs</title>
<ellipse fill="none" stroke="#000000" cx="1622.5904" cy="-408.3524" rx="104.2323" ry="18"/>
<text text-anchor="middle" x="1622.5904" y="-404.1524" font-family="Times,serif" font-size="14.00" fill="#000000">:design:component-attrs</text>
</g>
<!-- :design:themes&#45;&gt;:design:component&#45;attrs -->
<g id="edge55" class="edge">
<title>:design:themes-&gt;:design:component-attrs</title>
<path fill="none" stroke="#000000" d="M1049.9716,-575.7892C1175.2214,-558.2389 1449.4061,-519.7883 1450.5766,-519.3524 1505.4588,-498.9163 1560.9544,-458.8015 1593.5365,-432.8071"/>
<polygon fill="#000000" stroke="#000000" points="1596.1309,-435.2103 1601.7056,-426.2007 1591.7292,-429.7674 1596.1309,-435.2103"/>
</g>
<!-- :design:fonts -->
<g id="node30" class="node">
<title>:design:fonts</title>
<ellipse fill="none" stroke="#000000" cx="1316.1775" cy="-492.3524" rx="60.8525" ry="18"/>
<text text-anchor="middle" x="1316.1775" y="-488.1524" font-family="Times,serif" font-size="14.00" fill="#000000">:design:fonts</text>
</g>
<!-- :design:themes&#45;&gt;:design:fonts -->
<g id="edge56" class="edge">
<title>:design:themes-&gt;:design:fonts</title>
<path fill="none" stroke="#000000" d="M1031.5083,-570.1708C1070.4427,-557.4486 1129.6803,-538.6377 1181.7783,-524.3524 1206.3701,-517.6094 1233.7153,-510.9481 1257.2859,-505.4637"/>
<polygon fill="#000000" stroke="#000000" points="1258.1815,-508.849 1267.1374,-503.1884 1256.6063,-502.0286 1258.1815,-508.849"/>
</g>
<!-- :design:assets&#45;icons -->
<g id="node31" class="node">
<title>:design:assets-icons</title>
<ellipse fill="none" stroke="#000000" cx="1622.5904" cy="-703.3524" rx="87.9742" ry="18"/>
<text text-anchor="middle" x="1622.5904" y="-699.1524" font-family="Times,serif" font-size="14.00" fill="#000000">:design:assets-icons</text>
</g>
<!-- :design:themes&#45;&gt;:design:assets&#45;icons -->
<g id="edge58" class="edge">
<title>:design:themes-&gt;:design:assets-icons</title>
<path fill="none" stroke="#000000" d="M1019.2311,-600.6289C1056.4091,-619.7 1121.8157,-650.5683 1181.7783,-665.3524 1297.2172,-693.8146 1434.2107,-701.7506 1524.4922,-703.5767"/>
<polygon fill="#000000" stroke="#000000" points="1524.6568,-707.0802 1534.7184,-703.7614 1524.7833,-700.0813 1524.6568,-707.0802"/>
</g>
<!-- :design:assets&#45;illustrations -->
<g id="node32" class="node">
<title>:design:assets-illustrations</title>
<ellipse fill="none" stroke="#000000" cx="1316.1775" cy="-638.3524" rx="112.908" ry="18"/>
<text text-anchor="middle" x="1316.1775" y="-634.1524" font-family="Times,serif" font-size="14.00" fill="#000000">:design:assets-illustrations</text>
</g>
<!-- :design:themes&#45;&gt;:design:assets&#45;illustrations -->
<g id="edge59" class="edge">
<title>:design:themes-&gt;:design:assets-illustrations</title>
<path fill="none" stroke="#000000" d="M1047.3613,-594.0065C1097.4098,-602.2629 1170.2065,-614.272 1227.4258,-623.7113"/>
<polygon fill="#000000" stroke="#000000" points="1227.1193,-627.208 1237.5556,-625.3824 1228.2587,-620.3013 1227.1193,-627.208"/>
</g>
<!-- :feature&#45;flags&#45;&gt;:core:common -->
<g id="edge60" class="edge">
<title>:feature-flags-&gt;:core:common</title>
<path fill="none" stroke="#000000" d="M459.018,-1326.5351C469.3925,-1366.9405 500.3681,-1464.0336 566.7661,-1507.3524 782.5095,-1648.1059 895.0403,-1592.4049 1145.7783,-1533.3524 1293.1233,-1498.6505 1327.7257,-1469.7968 1450.5766,-1381.3524 1511.6565,-1337.379 1571.0563,-1271.2752 1601.5149,-1235.1631"/>
<polygon fill="#000000" stroke="#000000" points="1604.5407,-1237.0005 1608.2683,-1227.0831 1599.1697,-1232.5114 1604.5407,-1237.0005"/>
</g>
<!-- :features:rentable&#45;equipment&#45;&gt;:core -->
<g id="edge61" class="edge">
<title>:features:rentable-equipment-&gt;:core</title>
<path fill="none" stroke="#000000" d="M239.5751,-736.0635C265.6384,-757.0732 309.3172,-793.7517 342.8806,-829.3524 379.3372,-868.022 416.3174,-917.7659 437.3258,-947.2351"/>
<polygon fill="#000000" stroke="#000000" points="434.6801,-949.5554 443.3146,-955.6951 440.3935,-945.5109 434.6801,-949.5554"/>
</g>
<!-- :features:rentable&#45;equipment&#45;&gt;:design:branding -->
<g id="edge63" class="edge">
<title>:features:rentable-equipment-&gt;:design:branding</title>
<path fill="none" stroke="#000000" d="M280.7837,-702.9245C301.0838,-697.0077 323.3375,-689.4489 342.8806,-680.3524 372.0351,-666.7823 402.4339,-646.5079 424.1836,-630.7666"/>
<polygon fill="#000000" stroke="#000000" points="426.3727,-633.5015 432.3646,-624.7639 422.2316,-627.8578 426.3727,-633.5015"/>
</g>
<!-- :features:rentable&#45;equipment&#45;&gt;:design:themes -->
<g id="edge65" class="edge">
<title>:features:rentable-equipment-&gt;:design:themes</title>
<path fill="none" stroke="#000000" d="M315.759,-707.7379C431.4399,-694.4775 628.6482,-669.3305 795.9014,-635.3524 842.6533,-625.8546 894.9305,-611.8194 933.2635,-600.8756"/>
<polygon fill="#000000" stroke="#000000" points="934.5484,-604.1481 943.1921,-598.0213 932.6143,-597.4206 934.5484,-604.1481"/>
</g>
<!-- :features:rentable&#45;equipment&#45;&gt;:design:component&#45;attrs -->
<g id="edge64" class="edge">
<title>:features:rentable-equipment-&gt;:design:component-attrs</title>
<path fill="none" stroke="#000000" d="M304.2104,-705.6497C318.79,-699.9897 332.5206,-691.897 342.8806,-680.3524 400.8671,-615.7355 325.6884,-556.97 378.8806,-488.3524 424.5343,-429.4595 471.6952,-462.7756 530.7661,-417.3524 550.5245,-402.159 544.5278,-385.6082 566.7661,-374.3524 610.6174,-352.1573 1406.3935,-313.8253 1450.5766,-335.3524 1473.9149,-346.7234 1464.4626,-367.7529 1486.5766,-381.3524 1497.2562,-387.9201 1509.2194,-392.933 1521.5021,-396.7519"/>
<polygon fill="#000000" stroke="#000000" points="1520.8267,-400.1985 1531.4027,-399.5655 1522.7403,-393.4651 1520.8267,-400.1985"/>
</g>
<!-- :features:rentable&#45;equipment&#45;&gt;:design:assets&#45;icons -->
<g id="edge62" class="edge">
<title>:features:rentable-equipment-&gt;:design:assets-icons</title>
<path fill="none" stroke="#000000" d="M297.5042,-731.9489C312.6289,-734.8193 328.2761,-738.002 342.8806,-741.3524 443.5159,-764.4395 464.457,-789.448 566.7661,-803.3524 940.2582,-854.1123 1391.5736,-759.7444 1557.4134,-719.8964"/>
<polygon fill="#000000" stroke="#000000" points="1558.5552,-723.2212 1567.4513,-717.4671 1556.9086,-716.4176 1558.5552,-723.2212"/>
</g>
<!-- :features:reservation&#45;calendar&#45;&gt;:core -->
<g id="edge66" class="edge">
<title>:features:reservation-calendar-&gt;:core</title>
<path fill="none" stroke="#000000" d="M300.2027,-666.9309C315.7489,-672.492 330.8643,-680.3242 342.8806,-691.3524 418.4815,-760.7369 443.891,-887.9188 451.6841,-944.2381"/>
<polygon fill="#000000" stroke="#000000" points="448.2204,-944.7443 452.9801,-954.2098 455.162,-943.8421 448.2204,-944.7443"/>
</g>
<!-- :features:reservation&#45;calendar&#45;&gt;:design:branding -->
<g id="edge68" class="edge">
<title>:features:reservation-calendar-&gt;:design:branding</title>
<path fill="none" stroke="#000000" d="M291.9937,-638.8609C321.9418,-633.0657 356.2253,-626.4317 385.5854,-620.7504"/>
<polygon fill="#000000" stroke="#000000" points="386.597,-624.1196 395.7499,-618.7835 385.2671,-617.2471 386.597,-624.1196"/>
</g>
<!-- :features:reservation&#45;calendar&#45;&gt;:design:themes -->
<g id="edge70" class="edge">
<title>:features:reservation-calendar-&gt;:design:themes</title>
<path fill="none" stroke="#000000" d="M336.2516,-647.5219C453.4535,-641.1237 637.3526,-629.3105 795.9014,-611.3524 836.9121,-606.7073 882.6639,-600.3558 919.3188,-594.9801"/>
<polygon fill="#000000" stroke="#000000" points="920.0227,-598.4142 929.4047,-593.492 919.0009,-591.4892 920.0227,-598.4142"/>
</g>
<!-- :features:reservation&#45;calendar&#45;&gt;:design:component&#45;attrs -->
<g id="edge69" class="edge">
<title>:features:reservation-calendar-&gt;:design:component-attrs</title>
<path fill="none" stroke="#000000" d="M270.8302,-636.986C296.04,-626.7589 324.5095,-611.1134 342.8806,-588.3524 381.3427,-540.6996 342.0699,-504.2922 378.8806,-455.3524 437.5928,-377.2947 473.5813,-370.6225 566.7661,-341.3524 613.6557,-326.624 1409.2413,-275.7639 1450.5766,-302.3524 1483.0277,-323.2262 1456.3231,-357.4042 1486.5766,-381.3524 1495.5553,-388.4598 1505.8931,-393.8581 1516.775,-397.9372"/>
<polygon fill="#000000" stroke="#000000" points="1515.8635,-401.3231 1526.4575,-401.1919 1518.0939,-394.688 1515.8635,-401.3231"/>
</g>
<!-- :features:reservation&#45;calendar&#45;&gt;:design:assets&#45;icons -->
<g id="edge67" class="edge">
<title>:features:reservation-calendar-&gt;:design:assets-icons</title>
<path fill="none" stroke="#000000" d="M335.1231,-659.7045C516.902,-669.2415 876.3857,-687.1232 1181.7783,-696.3524 1299.6432,-699.9144 1435.2938,-701.7243 1524.6357,-702.601"/>
<polygon fill="#000000" stroke="#000000" points="1524.7221,-706.1019 1534.7553,-702.6982 1524.7894,-699.1022 1524.7221,-706.1019"/>
</g>
<!-- :features:superior&#45;login&#45;&gt;:core -->
<g id="edge71" class="edge">
<title>:features:superior-login-&gt;:core</title>
<path fill="none" stroke="#000000" d="M310.0021,-514.8199C322.183,-519.1839 333.6258,-525.4496 342.8806,-534.3524 358.1305,-549.0224 427.1466,-849.8894 448.5045,-944.2811"/>
<polygon fill="#000000" stroke="#000000" points="445.1381,-945.2633 450.7557,-954.2463 451.9661,-943.7208 445.1381,-945.2633"/>
</g>
<!-- :features:superior&#45;login&#45;&gt;:design:branding -->
<g id="edge72" class="edge">
<title>:features:superior-login-&gt;:design:branding</title>
<path fill="none" stroke="#000000" d="M293.9626,-519.1762C310.4493,-522.9944 327.5211,-527.955 342.8806,-534.3524 372.9447,-546.8745 403.6947,-567.6116 425.34,-583.7903"/>
<polygon fill="#000000" stroke="#000000" points="423.3772,-586.6947 433.4555,-589.9623 427.6146,-581.1229 423.3772,-586.6947"/>
</g>
<!-- :features:superior&#45;login&#45;&gt;:design:themes -->
<g id="edge74" class="edge">
<title>:features:superior-login-&gt;:design:themes</title>
<path fill="none" stroke="#000000" d="M296.7572,-496.1223C322.8685,-492.9431 352.0612,-489.9219 378.8806,-488.3524 564.3848,-477.4964 614.6048,-477.5948 795.9014,-518.3524 847.166,-529.8773 903.8407,-550.2236 942.4202,-565.2885"/>
<polygon fill="#000000" stroke="#000000" points="941.2376,-568.5844 951.8244,-568.9962 943.8051,-562.0722 941.2376,-568.5844"/>
</g>
<!-- :features:superior&#45;login&#45;&gt;:design:component&#45;attrs -->
<g id="edge73" class="edge">
<title>:features:superior-login-&gt;:design:component-attrs</title>
<path fill="none" stroke="#000000" d="M310.7213,-500.1779C322.7263,-495.761 333.9278,-489.4025 342.8806,-480.3524 399.3377,-423.282 328.9607,-366.2209 378.8806,-303.3524 395.793,-282.0531 776.5174,-111.2032 831.9014,-99.3524 899.1216,-84.969 1398.993,-52.915 1450.5766,-98.3524 1545.7205,-182.1599 1400.0875,-288.6395 1486.5766,-381.3524 1493.919,-389.2232 1502.8456,-395.1683 1512.579,-399.6202"/>
<polygon fill="#000000" stroke="#000000" points="1511.5483,-402.9776 1522.1328,-403.4452 1514.1501,-396.4791 1511.5483,-402.9776"/>
</g>
<!-- :sumsub:core&#45;&gt;:core -->
<g id="edge75" class="edge">
<title>:sumsub:core-&gt;:core</title>
<path fill="none" stroke="#000000" d="M260.7567,-574.3404C287.8652,-584.4766 321.4982,-601.1385 342.8806,-626.3524 424.7156,-722.8512 447.026,-880.3048 452.8566,-944.1402"/>
<polygon fill="#000000" stroke="#000000" points="449.3812,-944.5796 453.7114,-954.2491 456.3563,-943.9898 449.3812,-944.5796"/>
</g>
<!-- :sumsub:core&#45;&gt;:design:themes -->
<g id="edge76" class="edge">
<title>:sumsub:core-&gt;:design:themes</title>
<path fill="none" stroke="#000000" d="M279.6048,-563.2151C419.2135,-567.3759 756.1784,-577.4184 909.9506,-582.0013"/>
<polygon fill="#000000" stroke="#000000" points="910.1556,-585.5089 920.2555,-582.3084 910.3642,-578.512 910.1556,-585.5089"/>
</g>
<!-- :sumsub:themes -->
<g id="node33" class="node">
<title>:sumsub:themes</title>
<ellipse fill="none" stroke="#000000" cx="454.8234" cy="-515.3524" rx="73.0325" ry="18"/>
<text text-anchor="middle" x="454.8234" y="-511.1524" font-family="Times,serif" font-size="14.00" fill="#000000">:sumsub:themes</text>
</g>
<!-- :sumsub:core&#45;&gt;:sumsub:themes -->
<g id="edge77" class="edge">
<title>:sumsub:core-&gt;:sumsub:themes</title>
<path fill="none" stroke="#000000" d="M269.2726,-551.2575C303.9,-544.5569 349.6928,-535.6958 387.1216,-528.4531"/>
<polygon fill="#000000" stroke="#000000" points="387.7885,-531.8891 396.9414,-526.5529 386.4586,-525.0165 387.7885,-531.8891"/>
</g>
<!-- :branding:hoppygo:themes&#45;&gt;:design:themes -->
<g id="edge79" class="edge">
<title>:branding:hoppygo:themes-&gt;:design:themes</title>
<path fill="none" stroke="#000000" d="M762.7857,-414.1074C774.8494,-418.7018 786.3984,-424.9262 795.9014,-433.3524 827.2119,-461.1151 802.2359,-490.8386 831.9014,-520.3524 856.9355,-545.2585 892.9881,-560.8781 924.2266,-570.4446"/>
<polygon fill="#000000" stroke="#000000" points="923.6001,-573.9074 934.1798,-573.3419 925.5566,-567.1864 923.6001,-573.9074"/>
</g>
<!-- :branding:hoppygo:assets -->
<g id="node34" class="node">
<title>:branding:hoppygo:assets</title>
<ellipse fill="none" stroke="#000000" cx="988.8399" cy="-493.3524" rx="109.9769" ry="18"/>
<text text-anchor="middle" x="988.8399" y="-489.1524" font-family="Times,serif" font-size="14.00" fill="#000000">:branding:hoppygo:assets</text>
</g>
<!-- :branding:hoppygo:themes&#45;&gt;:branding:hoppygo:assets -->
<g id="edge80" class="edge">
<title>:branding:hoppygo:themes-&gt;:branding:hoppygo:assets</title>
<path fill="none" stroke="#000000" d="M749.9118,-415.8264C765.4691,-420.3771 781.6081,-426.1511 795.9014,-433.3524 814.0034,-442.4728 813.4861,-452.8824 831.9014,-461.3524 850.0551,-469.7021 870.3829,-475.8857 890.2339,-480.4612"/>
<polygon fill="#000000" stroke="#000000" points="889.7254,-483.9326 900.2418,-482.6454 891.2181,-477.0936 889.7254,-483.9326"/>
</g>
<!-- :branding:hoppygo:colors -->
<g id="node35" class="node">
<title>:branding:hoppygo:colors</title>
<ellipse fill="none" stroke="#000000" cx="1316.1775" cy="-362.3524" rx="110.6244" ry="18"/>
<text text-anchor="middle" x="1316.1775" y="-358.1524" font-family="Times,serif" font-size="14.00" fill="#000000">:branding:hoppygo:colors</text>
</g>
<!-- :branding:hoppygo:themes&#45;&gt;:branding:hoppygo:colors -->
<g id="edge81" class="edge">
<title>:branding:hoppygo:themes-&gt;:branding:hoppygo:colors</title>
<path fill="none" stroke="#000000" d="M748.4471,-416.0167C774.3827,-420.9904 804.3906,-425.9053 831.9014,-428.3524 970.8536,-440.7124 1016.1471,-479.891 1145.7783,-428.3524 1166.2291,-420.2216 1162.4151,-404.8125 1181.7783,-394.3524 1195.0214,-387.1985 1209.8478,-381.629 1224.6857,-377.2971"/>
<polygon fill="#000000" stroke="#000000" points="1225.7045,-380.647 1234.4214,-374.6248 1223.8516,-373.8966 1225.7045,-380.647"/>
</g>
<!-- :branding:hoppygo:fonts -->
<g id="node36" class="node">
<title>:branding:hoppygo:fonts</title>
<ellipse fill="none" stroke="#000000" cx="988.8399" cy="-401.3524" rx="106.5507" ry="18"/>
<text text-anchor="middle" x="988.8399" y="-397.1524" font-family="Times,serif" font-size="14.00" fill="#000000">:branding:hoppygo:fonts</text>
</g>
<!-- :branding:hoppygo:themes&#45;&gt;:branding:hoppygo:fonts -->
<g id="edge82" class="edge">
<title>:branding:hoppygo:themes-&gt;:branding:hoppygo:fonts</title>
<path fill="none" stroke="#000000" d="M796.275,-401.3524C821.014,-401.3524 847.1875,-401.3524 871.9981,-401.3524"/>
<polygon fill="#000000" stroke="#000000" points="872.1682,-404.8525 882.1682,-401.3524 872.1681,-397.8525 872.1682,-404.8525"/>
</g>
<!-- :branding:skodago:themes&#45;&gt;:design:themes -->
<g id="edge87" class="edge">
<title>:branding:skodago:themes-&gt;:design:themes</title>
<path fill="none" stroke="#000000" d="M702.4957,-262.3486C728.4411,-285.5816 771.9127,-328.506 795.9014,-374.3524 826.8857,-433.5685 788.2028,-469.7857 831.9014,-520.3524 854.6438,-546.6693 889.8446,-562.3281 921.1496,-571.5606"/>
<polygon fill="#000000" stroke="#000000" points="920.5841,-575.0359 931.1559,-574.3377 922.4562,-568.2908 920.5841,-575.0359"/>
</g>
<!-- :branding:skodago:assets -->
<g id="node37" class="node">
<title>:branding:skodago:assets</title>
<ellipse fill="none" stroke="#000000" cx="1316.1775" cy="-125.3524" rx="108.2473" ry="18"/>
<text text-anchor="middle" x="1316.1775" y="-121.1524" font-family="Times,serif" font-size="14.00" fill="#000000">:branding:skodago:assets</text>
</g>
<!-- :branding:skodago:themes&#45;&gt;:branding:skodago:assets -->
<g id="edge83" class="edge">
<title>:branding:skodago:themes-&gt;:branding:skodago:assets</title>
<path fill="none" stroke="#000000" d="M698.7441,-226.3004C724.8541,-200.6418 776.9811,-154.7032 831.9014,-136.3524 963.7667,-92.2916 1127.2823,-100.5514 1226.5754,-111.9308"/>
<polygon fill="#000000" stroke="#000000" points="1226.2329,-115.4146 1236.5745,-113.1123 1227.0543,-108.463 1226.2329,-115.4146"/>
</g>
<!-- :branding:skodago:assets&#45;illustrations -->
<g id="node38" class="node">
<title>:branding:skodago:assets-illustrations</title>
<ellipse fill="none" stroke="#000000" cx="988.8399" cy="-217.3524" rx="156.8769" ry="18"/>
<text text-anchor="middle" x="988.8399" y="-213.1524" font-family="Times,serif" font-size="14.00" fill="#000000">:branding:skodago:assets-illustrations</text>
</g>
<!-- :branding:skodago:themes&#45;&gt;:branding:skodago:assets&#45;illustrations -->
<g id="edge84" class="edge">
<title>:branding:skodago:themes-&gt;:branding:skodago:assets-illustrations</title>
<path fill="none" stroke="#000000" d="M780.3233,-235.6608C803.7789,-233.6014 829.1903,-231.3702 853.9402,-229.197"/>
<polygon fill="#000000" stroke="#000000" points="854.4701,-232.6641 864.1256,-228.3027 853.8577,-225.6909 854.4701,-232.6641"/>
</g>
<!-- :branding:skodago:colors -->
<g id="node39" class="node">
<title>:branding:skodago:colors</title>
<ellipse fill="none" stroke="#000000" cx="988.8399" cy="-163.3524" rx="109.3952" ry="18"/>
<text text-anchor="middle" x="988.8399" y="-159.1524" font-family="Times,serif" font-size="14.00" fill="#000000">:branding:skodago:colors</text>
</g>
<!-- :branding:skodago:themes&#45;&gt;:branding:skodago:colors -->
<g id="edge85" class="edge">
<title>:branding:skodago:themes-&gt;:branding:skodago:colors</title>
<path fill="none" stroke="#000000" d="M722.2637,-227.4852C752.2043,-215.6882 794.0346,-200.319 831.9014,-190.3524 852.2124,-185.0066 874.2891,-180.4558 895.2948,-176.699"/>
<polygon fill="#000000" stroke="#000000" points="895.9335,-180.1406 905.1831,-174.9739 894.7303,-173.2447 895.9335,-180.1406"/>
</g>
<!-- :branding:skodago:fonts -->
<g id="node40" class="node">
<title>:branding:skodago:fonts</title>
<ellipse fill="none" stroke="#000000" cx="988.8399" cy="-271.3524" rx="104.8215" ry="18"/>
<text text-anchor="middle" x="988.8399" y="-267.1524" font-family="Times,serif" font-size="14.00" fill="#000000">:branding:skodago:fonts</text>
</g>
<!-- :branding:skodago:themes&#45;&gt;:branding:skodago:fonts -->
<g id="edge86" class="edge">
<title>:branding:skodago:themes-&gt;:branding:skodago:fonts</title>
<path fill="none" stroke="#000000" d="M780.3233,-253.044C813.7372,-255.9779 851.1204,-259.2602 884.9055,-262.2267"/>
<polygon fill="#000000" stroke="#000000" points="884.9988,-265.7482 895.2666,-263.1364 885.6111,-258.7751 884.9988,-265.7482"/>
</g>
<!-- :design:assets&#45;&gt;:libs:simpleratingbar -->
<g id="edge91" class="edge">
<title>:design:assets-&gt;:libs:simpleratingbar</title>
<path fill="none" stroke="#000000" d="M1363.9599,-572.3115C1393.0059,-562.6158 1428.6114,-546.0881 1450.5766,-519.3524 1490.8143,-470.3758 1440.4487,-424.8265 1486.5766,-381.3524 1496.868,-371.6531 1509.5979,-364.9835 1523.1054,-360.4637"/>
<polygon fill="#000000" stroke="#000000" points="1524.4471,-363.7175 1533.0546,-357.54 1522.4735,-357.0015 1524.4471,-363.7175"/>
</g>
<!-- :design:assets&#45;&gt;:design:l10n -->
<g id="edge90" class="edge">
<title>:design:assets-&gt;:design:l10n</title>
<path fill="none" stroke="#000000" d="M1380.6134,-583.7395C1405.1597,-586.6992 1431.7308,-594.2259 1450.5766,-611.3524 1491.4692,-648.5146 1456.1336,-684.2389 1486.5766,-730.3524 1512.4553,-769.5521 1555.7471,-802.4924 1586.535,-822.7268"/>
<polygon fill="#000000" stroke="#000000" points="1584.9551,-825.8722 1595.2582,-828.3413 1588.7437,-819.986 1584.9551,-825.8722"/>
</g>
<!-- :design:assets&#45;&gt;:design:component&#45;attrs -->
<g id="edge89" class="edge">
<title>:design:assets-&gt;:design:component-attrs</title>
<path fill="none" stroke="#000000" d="M1374.1188,-576.6176C1398.6125,-571.8341 1426.8912,-564.246 1450.5766,-552.3524 1511.1534,-521.934 1568.8703,-466.3165 1599.616,-433.8243"/>
<polygon fill="#000000" stroke="#000000" points="1602.2081,-436.1767 1606.4781,-426.4805 1597.0934,-431.3976 1602.2081,-436.1767"/>
</g>
<!-- :design:assets&#45;&gt;:design:assets&#45;icons -->
<g id="edge88" class="edge">
<title>:design:assets-&gt;:design:assets-icons</title>
<path fill="none" stroke="#000000" d="M1374.0783,-592.1653C1398.1718,-596.3907 1426.1612,-602.5867 1450.5766,-611.3524 1500.6108,-629.316 1553.9599,-659.8404 1587.7466,-680.7677"/>
<polygon fill="#000000" stroke="#000000" points="1585.9856,-683.7945 1596.3194,-686.1322 1589.6989,-677.8605 1585.9856,-683.7945"/>
</g>
<!-- :design:bottomnavbar&#45;&gt;:core -->
<g id="edge92" class="edge">
<title>:design:bottomnavbar-&gt;:core</title>
<path fill="none" stroke="#000000" d="M1241.1121,-855.5074C1064.745,-881.7161 628.7513,-946.5062 494.6893,-966.4282"/>
<polygon fill="#000000" stroke="#000000" points="493.85,-963.0144 484.4731,-967.9464 494.879,-969.9384 493.85,-963.0144"/>
</g>
<!-- :design:bottomnavbar&#45;&gt;:design:l10n -->
<g id="edge94" class="edge">
<title>:design:bottomnavbar-&gt;:design:l10n</title>
<path fill="none" stroke="#000000" d="M1411.4488,-844.3524C1457.3792,-844.3524 1511.4566,-844.3524 1553.3847,-844.3524"/>
<polygon fill="#000000" stroke="#000000" points="1553.4968,-847.8525 1563.4967,-844.3524 1553.4967,-840.8525 1553.4968,-847.8525"/>
</g>
<!-- :design:bottomnavbar&#45;&gt;:design:assets&#45;icons -->
<g id="edge93" class="edge">
<title>:design:bottomnavbar-&gt;:design:assets-icons</title>
<path fill="none" stroke="#000000" d="M1352.5303,-827.6242C1408.658,-801.7963 1516.3017,-752.2626 1577.3724,-724.1601"/>
<polygon fill="#000000" stroke="#000000" points="1579.1377,-727.2006 1586.759,-719.8407 1576.2115,-720.8416 1579.1377,-727.2006"/>
</g>
<!-- :design:fonts&#45;&gt;:design:component&#45;attrs -->
<g id="edge95" class="edge">
<title>:design:fonts-&gt;:design:component-attrs</title>
<path fill="none" stroke="#000000" d="M1361.0607,-480.0481C1412.6806,-465.8971 1497.8902,-442.5377 1556.9554,-426.3456"/>
<polygon fill="#000000" stroke="#000000" points="1558.2136,-429.6299 1566.9324,-423.6105 1556.3628,-422.879 1558.2136,-429.6299"/>
</g>
<!-- :design:assets&#45;illustrations&#45;&gt;:design:component&#45;attrs -->
<g id="edge96" class="edge">
<title>:design:assets-illustrations-&gt;:design:component-attrs</title>
<path fill="none" stroke="#000000" d="M1409.5563,-628.0621C1423.8974,-624.1242 1438.0731,-618.7297 1450.5766,-611.3524 1524.8633,-567.5221 1582.293,-479.6367 1607.9366,-435.2781"/>
<polygon fill="#000000" stroke="#000000" points="1611.0245,-436.9283 1612.9209,-426.5046 1604.938,-433.4706 1611.0245,-436.9283"/>
</g>
<!-- :sumsub:themes&#45;&gt;:design:themes -->
<g id="edge78" class="edge">
<title>:sumsub:themes-&gt;:design:themes</title>
<path fill="none" stroke="#000000" d="M525.6052,-520.0038C594.7508,-525.0159 702.8702,-534.0991 795.9014,-547.3524 839.6056,-553.5786 888.4372,-562.9672 926.0393,-570.7288"/>
<polygon fill="#000000" stroke="#000000" points="925.3359,-574.1573 935.8391,-572.7672 926.7614,-567.304 925.3359,-574.1573"/>
</g>
<!-- :branding:hoppygo:assets&#45;&gt;:design:assets -->
<g id="edge97" class="edge">
<title>:branding:hoppygo:assets-&gt;:design:assets</title>
<path fill="none" stroke="#000000" d="M1044.7393,-508.8925C1105.1063,-525.6745 1200.6844,-552.2453 1260.8341,-568.9669"/>
<polygon fill="#000000" stroke="#000000" points="1259.966,-572.3583 1270.5382,-571.6647 1261.841,-565.6141 1259.966,-572.3583"/>
</g>
<!-- :branding:hoppygo:assets&#45;&gt;:design:component&#45;attrs -->
<g id="edge99" class="edge">
<title>:branding:hoppygo:assets-&gt;:design:component-attrs</title>
<path fill="none" stroke="#000000" d="M1062.6023,-479.8957C1089.3746,-473.7526 1119.4882,-465.3458 1145.7783,-454.3524 1163.0779,-447.1185 1163.8728,-437.9201 1181.7783,-432.3524 1293.0587,-397.75 1427.656,-395.785 1518.6157,-399.8944"/>
<polygon fill="#000000" stroke="#000000" points="1518.5,-403.3928 1528.6577,-400.3808 1518.8387,-396.401 1518.5,-403.3928"/>
</g>
<!-- :branding:hoppygo:assets&#45;&gt;:design:assets&#45;icons -->
<g id="edge98" class="edge">
<title>:branding:hoppygo:assets-&gt;:design:assets-icons</title>
<path fill="none" stroke="#000000" d="M1062.7152,-479.8966C1175.6053,-460.824 1384.8757,-431.7731 1450.5766,-465.3524 1538.4305,-510.254 1591.7585,-623.2808 1612.5543,-675.7716"/>
<polygon fill="#000000" stroke="#000000" points="1609.3018,-677.0649 1616.1703,-685.1317 1615.8315,-674.5423 1609.3018,-677.0649"/>
</g>
<!-- :branding:hoppygo:assets&#45;&gt;:branding:hoppygo:colors -->
<g id="edge100" class="edge">
<title>:branding:hoppygo:assets-&gt;:branding:hoppygo:colors</title>
<path fill="none" stroke="#000000" d="M1089.802,-486.2446C1109.7296,-481.2729 1129.4898,-473.4659 1145.7783,-461.3524 1172.9036,-441.1798 1154.9854,-414.9645 1181.7783,-394.3524 1192.004,-386.4857 1203.866,-380.5121 1216.2252,-375.9833"/>
<polygon fill="#000000" stroke="#000000" points="1217.3821,-379.287 1225.7545,-372.7943 1215.1606,-372.6488 1217.3821,-379.287"/>
</g>
<!-- :branding:hoppygo:colors&#45;&gt;:design:component&#45;attrs -->
<g id="edge101" class="edge">
<title>:branding:hoppygo:colors-&gt;:design:component-attrs</title>
<path fill="none" stroke="#000000" d="M1397.888,-374.6192C1439.7406,-380.9022 1490.7693,-388.5629 1533.6144,-394.995"/>
<polygon fill="#000000" stroke="#000000" points="1533.3434,-398.4934 1543.7522,-396.5169 1534.3827,-391.571 1533.3434,-398.4934"/>
</g>
<!-- :branding:hoppygo:colors&#45;brand -->
<g id="node41" class="node">
<title>:branding:hoppygo:colors-brand</title>
<ellipse fill="none" stroke="#000000" cx="1622.5904" cy="-300.3524" rx="136.0276" ry="18"/>
<text text-anchor="middle" x="1622.5904" y="-296.1524" font-family="Times,serif" font-size="14.00" fill="#000000">:branding:hoppygo:colors-brand</text>
</g>
<!-- :branding:hoppygo:colors&#45;&gt;:branding:hoppygo:colors&#45;brand -->
<g id="edge102" class="edge">
<title>:branding:hoppygo:colors-&gt;:branding:hoppygo:colors-brand</title>
<path fill="none" stroke="#000000" d="M1384.9716,-348.1141C1416.0045,-341.7191 1453.1251,-334.108 1486.5766,-327.3524 1502.6987,-324.0965 1519.9029,-320.6554 1536.4634,-317.3599"/>
<polygon fill="#000000" stroke="#000000" points="1537.5504,-320.7124 1546.676,-315.3298 1536.1855,-313.8468 1537.5504,-320.7124"/>
</g>
<!-- :branding:skodago:assets&#45;&gt;:design:component&#45;attrs -->
<g id="edge103" class="edge">
<title>:branding:skodago:assets-&gt;:design:component-attrs</title>
<path fill="none" stroke="#000000" d="M1417.8798,-131.673C1430.1494,-136.2674 1441.5188,-142.9028 1450.5766,-152.3524 1521.8703,-226.7294 1415.1977,-307.0573 1486.5766,-381.3524 1494.0339,-389.1144 1503.0353,-394.9887 1512.8138,-399.3979"/>
<polygon fill="#000000" stroke="#000000" points="1511.8158,-402.7669 1522.4022,-403.1902 1514.3903,-396.2576 1511.8158,-402.7669"/>
</g>
<!-- :branding:skodago:colors&#45;brand -->
<g id="node42" class="node">
<title>:branding:skodago:colors-brand</title>
<ellipse fill="none" stroke="#000000" cx="1316.1775" cy="-179.3524" rx="134.2984" ry="18"/>
<text text-anchor="middle" x="1316.1775" y="-175.1524" font-family="Times,serif" font-size="14.00" fill="#000000">:branding:skodago:colors-brand</text>
</g>
<!-- :branding:skodago:colors&#45;&gt;:branding:skodago:colors&#45;brand -->
<g id="edge104" class="edge">
<title>:branding:skodago:colors-&gt;:branding:skodago:colors-brand</title>
<path fill="none" stroke="#000000" d="M1093.7622,-168.4809C1121.1123,-169.8178 1150.9859,-171.278 1179.7096,-172.682"/>
<polygon fill="#000000" stroke="#000000" points="1179.6565,-176.1835 1189.8155,-173.176 1179.9983,-169.1918 1179.6565,-176.1835"/>
</g>
</g>
</svg>