<?xml version="1.0" encoding="UTF-8" standalone="no"?><!DOCTYPE svg PUBLIC "-//W3C//DTD SVG 1.1//EN" "http://www.w3.org/Graphics/SVG/1.1/DTD/svg11.dtd"><!-- Generated by graphviz version 2.40.1 (20161225.0304)
 --><!-- Title: G Pages: 1 --><svg xmlns="http://www.w3.org/2000/svg" xmlns:xlink="http://www.w3.org/1999/xlink" width="1832pt" height="1153pt" viewBox="0.00 0.00 1832.00 1153.35">
<g id="graph0" class="graph" transform="scale(1 1) rotate(0) translate(4 1149.3489)">
<title>G</title>
<polygon fill="#ffffff" stroke="transparent" points="-4,4 -4,-1149.3489 1828.0049,-1149.3489 1828.0049,4 -4,4"/>
<!-- :app -->
<g id="node1" class="node">
<title>:app</title>
<ellipse fill="none" stroke="#ff0000" stroke-width="2" cx="27.6638" cy="-647" rx="27.8286" ry="18"/>
<text text-anchor="middle" x="27.6638" y="-642.8" font-family="Times,serif" font-size="14.00" fill="#000000">:app</text>
</g>
<!-- :announcements -->
<g id="node3" class="node">
<title>:announcements</title>
<ellipse fill="none" stroke="#000000" cx="348.6424" cy="-969" rx="73.5791" ry="18"/>
<text text-anchor="middle" x="348.6424" y="-964.8" font-family="Times,serif" font-size="14.00" fill="#000000">:announcements</text>
</g>
<!-- :app&#45;&gt;:announcements -->
<g id="edge40" class="edge">
<title>:app-&gt;:announcements</title>
<path fill="none" stroke="#000000" d="M28.983,-665.2592C33.5459,-722.9876 50.6638,-899.9291 91.3277,-937 116.1165,-959.5985 199.2443,-966.7304 264.3878,-968.7448"/>
<polygon fill="#000000" stroke="#000000" points="264.585,-972.2514 274.6769,-969.0258 264.7762,-965.2541 264.585,-972.2514"/>
</g>
<!-- :common -->
<g id="node4" class="node">
<title>:common</title>
<ellipse fill="none" stroke="#000000" cx="595.4884" cy="-586" rx="47.5332" ry="18"/>
<text text-anchor="middle" x="595.4884" y="-581.8" font-family="Times,serif" font-size="14.00" fill="#000000">:common</text>
</g>
<!-- :app&#45;&gt;:common -->
<g id="edge21" class="edge">
<title>:app-&gt;:common</title>
<path fill="none" stroke="#000000" d="M29.3334,-665.2611C34.6517,-718.9039 53.1359,-874.1147 91.3277,-904 129.3795,-933.7758 377.3238,-942.4886 447.0868,-897 547.5165,-831.5153 581.6515,-677.967 591.741,-614.3652"/>
<polygon fill="#000000" stroke="#000000" points="595.2339,-614.6736 593.2588,-604.2645 588.3116,-613.6333 595.2339,-614.6736"/>
</g>
<!-- :firebase:analytics -->
<g id="node9" class="node">
<title>:firebase:analytics</title>
<ellipse fill="none" stroke="#000000" cx="862.189" cy="-640" rx="81.0705" ry="18"/>
<text text-anchor="middle" x="862.189" y="-635.8" font-family="Times,serif" font-size="14.00" fill="#000000">:firebase:analytics</text>
</g>
<!-- :app&#45;&gt;:firebase:analytics -->
<g id="edge29" class="edge">
<title>:app-&gt;:firebase:analytics</title>
<path fill="none" stroke="#000000" d="M28.9017,-665.1501C34.5064,-744.6806 58.654,-1059.7045 91.3277,-1088 355.8601,-1317.0862 754.3456,-792.1775 843.8948,-666.326"/>
<polygon fill="#000000" stroke="#000000" points="846.8873,-668.1561 849.8024,-657.9702 841.1715,-664.115 846.8873,-668.1561"/>
</g>
<!-- :camera -->
<g id="node20" class="node">
<title>:camera</title>
<ellipse fill="none" stroke="#000000" cx="348.6424" cy="-839" rx="41.6882" ry="18"/>
<text text-anchor="middle" x="348.6424" y="-834.8" font-family="Times,serif" font-size="14.00" fill="#000000">:camera</text>
</g>
<!-- :app&#45;&gt;:camera -->
<g id="edge20" class="edge">
<title>:app-&gt;:camera</title>
<path fill="none" stroke="#000000" d="M28.7604,-665.2428C31.9231,-700.0932 44.1582,-775.8766 91.3277,-812 122.5127,-835.8822 231.1849,-839.7346 296.9142,-839.7784"/>
<polygon fill="#000000" stroke="#000000" points="297.0842,-843.2781 307.0762,-839.7552 297.0682,-836.2782 297.0842,-843.2781"/>
</g>
<!-- :onboarding -->
<g id="node21" class="node">
<title>:onboarding</title>
<ellipse fill="none" stroke="#000000" cx="152.7628" cy="-785" rx="57.91" ry="18"/>
<text text-anchor="middle" x="152.7628" y="-780.8" font-family="Times,serif" font-size="14.00" fill="#000000">:onboarding</text>
</g>
<!-- :app&#45;&gt;:onboarding -->
<g id="edge22" class="edge">
<title>:app-&gt;:onboarding</title>
<path fill="none" stroke="#000000" d="M34.7027,-664.7803C44.491,-687.6313 64.1269,-727.401 91.3277,-753 96.3291,-757.7069 102.1564,-761.9062 108.1923,-765.5903"/>
<polygon fill="#000000" stroke="#000000" points="106.6827,-768.757 117.1128,-770.6181 110.1198,-762.6589 106.6827,-768.757"/>
</g>
<!-- :auth -->
<g id="node22" class="node">
<title>:auth</title>
<ellipse fill="none" stroke="#000000" cx="348.6424" cy="-655" rx="30.1958" ry="18"/>
<text text-anchor="middle" x="348.6424" y="-650.8" font-family="Times,serif" font-size="14.00" fill="#000000">:auth</text>
</g>
<!-- :app&#45;&gt;:auth -->
<g id="edge23" class="edge">
<title>:app-&gt;:auth</title>
<path fill="none" stroke="#000000" d="M55.3081,-647.689C112.0352,-649.1029 241.8183,-652.3375 308.0862,-653.9892"/>
<polygon fill="#000000" stroke="#000000" points="308.0714,-657.4898 318.1555,-654.2402 308.2459,-650.492 308.0714,-657.4898"/>
</g>
<!-- :profile -->
<g id="node23" class="node">
<title>:profile</title>
<ellipse fill="none" stroke="#000000" cx="152.7628" cy="-693" rx="39.4216" ry="18"/>
<text text-anchor="middle" x="152.7628" y="-688.8" font-family="Times,serif" font-size="14.00" fill="#000000">:profile</text>
</g>
<!-- :app&#45;&gt;:profile -->
<g id="edge24" class="edge">
<title>:app-&gt;:profile</title>
<path fill="none" stroke="#000000" d="M51.7842,-655.8693C68.8687,-662.1514 92.1982,-670.7298 112.1292,-678.0587"/>
<polygon fill="#000000" stroke="#000000" points="111.0047,-681.3743 121.5983,-681.5405 113.4206,-674.8043 111.0047,-681.3743"/>
</g>
<!-- :map -->
<g id="node24" class="node">
<title>:map</title>
<ellipse fill="none" stroke="#000000" cx="152.7628" cy="-217" rx="30.1958" ry="18"/>
<text text-anchor="middle" x="152.7628" y="-212.8" font-family="Times,serif" font-size="14.00" fill="#000000">:map</text>
</g>
<!-- :app&#45;&gt;:map -->
<g id="edge25" class="edge">
<title>:app-&gt;:map</title>
<path fill="none" stroke="#000000" d="M28.2646,-628.994C30.9317,-558.9818 43.7594,-305.7106 91.3277,-244 97.2301,-236.3428 105.7613,-230.8128 114.5969,-226.8354"/>
<polygon fill="#000000" stroke="#000000" points="116.1434,-229.9894 124.1939,-223.1018 113.6054,-223.4657 116.1434,-229.9894"/>
</g>
<!-- :rental -->
<g id="node25" class="node">
<title>:rental</title>
<ellipse fill="none" stroke="#000000" cx="348.6424" cy="-141" rx="35.9096" ry="18"/>
<text text-anchor="middle" x="348.6424" y="-136.8" font-family="Times,serif" font-size="14.00" fill="#000000">:rental</text>
</g>
<!-- :app&#45;&gt;:rental -->
<g id="edge26" class="edge">
<title>:app-&gt;:rental</title>
<path fill="none" stroke="#000000" d="M28.9499,-628.8867C34.8546,-548.0156 60.406,-222.4998 91.3277,-190 146.0677,-132.4662 245.8622,-130.6247 303.771,-135.2666"/>
<polygon fill="#000000" stroke="#000000" points="303.8019,-138.7836 314.0761,-136.1969 304.4313,-131.8119 303.8019,-138.7836"/>
</g>
<!-- :packages -->
<g id="node26" class="node">
<title>:packages</title>
<ellipse fill="none" stroke="#000000" cx="348.6424" cy="-563" rx="49.2163" ry="18"/>
<text text-anchor="middle" x="348.6424" y="-558.8" font-family="Times,serif" font-size="14.00" fill="#000000">:packages</text>
</g>
<!-- :app&#45;&gt;:packages -->
<g id="edge27" class="edge">
<title>:app-&gt;:packages</title>
<path fill="none" stroke="#000000" d="M36.9845,-629.8C47.5691,-612.2246 66.6243,-585.8773 91.3277,-574 155.8753,-542.9659 240.385,-546.4609 294.607,-553.4254"/>
<polygon fill="#000000" stroke="#000000" points="294.3175,-556.9184 304.6998,-554.8069 295.2668,-549.983 294.3175,-556.9184"/>
</g>
<!-- :firebase:firestore -->
<g id="node27" class="node">
<title>:firebase:firestore</title>
<ellipse fill="none" stroke="#000000" cx="348.6424" cy="-509" rx="79.2613" ry="18"/>
<text text-anchor="middle" x="348.6424" y="-504.8" font-family="Times,serif" font-size="14.00" fill="#000000">:firebase:firestore</text>
</g>
<!-- :app&#45;&gt;:firebase:firestore -->
<g id="edge28" class="edge">
<title>:app-&gt;:firebase:firestore</title>
<path fill="none" stroke="#000000" d="M33.3402,-629.0165C41.8458,-605.2823 60.3024,-564.158 91.3277,-544 142.1158,-511.0016 210.4604,-502.9979 263.9488,-502.8433"/>
<polygon fill="#000000" stroke="#000000" points="264.0752,-506.344 274.0969,-502.9066 264.1189,-499.3442 264.0752,-506.344"/>
</g>
<!-- :firebase:remoteconfig -->
<g id="node28" class="node">
<title>:firebase:remoteconfig</title>
<ellipse fill="none" stroke="#000000" cx="348.6424" cy="-747" rx="98.3889" ry="18"/>
<text text-anchor="middle" x="348.6424" y="-742.8" font-family="Times,serif" font-size="14.00" fill="#000000">:firebase:remoteconfig</text>
</g>
<!-- :app&#45;&gt;:firebase:remoteconfig -->
<g id="edge30" class="edge">
<title>:app-&gt;:firebase:remoteconfig</title>
<path fill="none" stroke="#000000" d="M37.3326,-664.2198C48.0797,-681.5451 67.1524,-707.4424 91.3277,-720 138.502,-744.5041 197.0514,-752.1224 246.3768,-753.2304"/>
<polygon fill="#000000" stroke="#000000" points="246.3857,-756.7307 256.4334,-753.3701 246.483,-749.7314 246.3857,-756.7307"/>
</g>
<!-- :report -->
<g id="node29" class="node">
<title>:report</title>
<ellipse fill="none" stroke="#000000" cx="152.7628" cy="-601" rx="36.5555" ry="18"/>
<text text-anchor="middle" x="152.7628" y="-596.8" font-family="Times,serif" font-size="14.00" fill="#000000">:report</text>
</g>
<!-- :app&#45;&gt;:report -->
<g id="edge31" class="edge">
<title>:app-&gt;:report</title>
<path fill="none" stroke="#000000" d="M51.7842,-638.1307C69.2348,-631.714 93.2009,-622.9015 113.4057,-615.472"/>
<polygon fill="#000000" stroke="#000000" points="114.7996,-618.6886 122.9773,-611.9524 112.3837,-612.1187 114.7996,-618.6886"/>
</g>
<!-- :emailconfig -->
<g id="node30" class="node">
<title>:emailconfig</title>
<ellipse fill="none" stroke="#000000" cx="348.6424" cy="-455" rx="59.6878" ry="18"/>
<text text-anchor="middle" x="348.6424" y="-450.8" font-family="Times,serif" font-size="14.00" fill="#000000">:emailconfig</text>
</g>
<!-- :app&#45;&gt;:emailconfig -->
<g id="edge32" class="edge">
<title>:app-&gt;:emailconfig</title>
<path fill="none" stroke="#000000" d="M30.0341,-628.8874C35.155,-597.529 50.3063,-533.3827 91.3277,-501 144.7285,-458.8448 223.8306,-450.2878 280.2176,-450.4345"/>
<polygon fill="#000000" stroke="#000000" points="280.4295,-453.9372 290.4707,-450.5571 280.5132,-446.9377 280.4295,-453.9372"/>
</g>
<!-- :phoneconfig -->
<g id="node31" class="node">
<title>:phoneconfig</title>
<ellipse fill="none" stroke="#000000" cx="348.6424" cy="-401" rx="61.9828" ry="18"/>
<text text-anchor="middle" x="348.6424" y="-396.8" font-family="Times,serif" font-size="14.00" fill="#000000">:phoneconfig</text>
</g>
<!-- :app&#45;&gt;:phoneconfig -->
<g id="edge33" class="edge">
<title>:app-&gt;:phoneconfig</title>
<path fill="none" stroke="#000000" d="M31.0939,-629.0178C39.7971,-585.2857 63.9961,-475.1817 91.3277,-451 142.2897,-405.9112 221.5011,-396.4356 278.5774,-396.3535"/>
<polygon fill="#000000" stroke="#000000" points="278.5799,-399.8535 288.6079,-396.4346 278.6366,-392.8537 278.5799,-399.8535"/>
</g>
<!-- :personalinfoconfig -->
<g id="node32" class="node">
<title>:personalinfoconfig</title>
<ellipse fill="none" stroke="#000000" cx="348.6424" cy="-347" rx="86.8184" ry="18"/>
<text text-anchor="middle" x="348.6424" y="-342.8" font-family="Times,serif" font-size="14.00" fill="#000000">:personalinfoconfig</text>
</g>
<!-- :app&#45;&gt;:personalinfoconfig -->
<g id="edge34" class="edge">
<title>:app-&gt;:personalinfoconfig</title>
<path fill="none" stroke="#000000" d="M29.8131,-628.9685C36.3231,-577.4314 57.4791,-431.1365 91.3277,-399 104.2241,-386.7559 197.0371,-370.1135 267.5286,-358.9867"/>
<polygon fill="#000000" stroke="#000000" points="268.4163,-362.3905 277.7549,-357.3863 267.3339,-355.4747 268.4163,-362.3905"/>
</g>
<!-- :documents -->
<g id="node33" class="node">
<title>:documents</title>
<ellipse fill="none" stroke="#000000" cx="152.7628" cy="-338" rx="55.6178" ry="18"/>
<text text-anchor="middle" x="152.7628" y="-333.8" font-family="Times,serif" font-size="14.00" fill="#000000">:documents</text>
</g>
<!-- :app&#45;&gt;:documents -->
<g id="edge35" class="edge">
<title>:app-&gt;:documents</title>
<path fill="none" stroke="#000000" d="M29.8554,-629.0139C36.7912,-574.5178 59.6873,-412.424 91.3277,-371 95.5247,-365.5052 100.9065,-360.8197 106.7357,-356.8559"/>
<polygon fill="#000000" stroke="#000000" points="108.761,-359.7215 115.5103,-351.5546 105.1412,-353.7301 108.761,-359.7215"/>
</g>
<!-- :payments -->
<g id="node34" class="node">
<title>:payments</title>
<ellipse fill="none" stroke="#000000" cx="152.7628" cy="-271" rx="50.9619" ry="18"/>
<text text-anchor="middle" x="152.7628" y="-266.8" font-family="Times,serif" font-size="14.00" fill="#000000">:payments</text>
</g>
<!-- :app&#45;&gt;:payments -->
<g id="edge36" class="edge">
<title>:app-&gt;:payments</title>
<path fill="none" stroke="#000000" d="M29.2264,-628.8553C34.8487,-566.8483 55.6291,-364.2645 91.3277,-311 96.7444,-302.9179 104.4044,-296.0958 112.4847,-290.5019"/>
<polygon fill="#000000" stroke="#000000" points="114.4092,-293.426 120.9812,-285.1158 110.6613,-287.5139 114.4092,-293.426"/>
</g>
<!-- :promocode -->
<g id="node35" class="node">
<title>:promocode</title>
<ellipse fill="none" stroke="#000000" cx="152.7628" cy="-1061" rx="57.3263" ry="18"/>
<text text-anchor="middle" x="152.7628" y="-1056.8" font-family="Times,serif" font-size="14.00" fill="#000000">:promocode</text>
</g>
<!-- :app&#45;&gt;:promocode -->
<g id="edge37" class="edge">
<title>:app-&gt;:promocode</title>
<path fill="none" stroke="#000000" d="M28.4048,-665.2241C31.5247,-733.7554 45.6211,-975.0935 91.3277,-1034 94.1354,-1037.6186 97.5295,-1040.7625 101.2638,-1043.4922"/>
<polygon fill="#000000" stroke="#000000" points="99.5414,-1046.5423 109.8864,-1048.8298 103.2258,-1040.5904 99.5414,-1046.5423"/>
</g>
<!-- :forceupdate -->
<g id="node36" class="node">
<title>:forceupdate</title>
<ellipse fill="none" stroke="#000000" cx="152.7628" cy="-1007" rx="59.0891" ry="18"/>
<text text-anchor="middle" x="152.7628" y="-1002.8" font-family="Times,serif" font-size="14.00" fill="#000000">:forceupdate</text>
</g>
<!-- :app&#45;&gt;:forceupdate -->
<g id="edge38" class="edge">
<title>:app-&gt;:forceupdate</title>
<path fill="none" stroke="#000000" d="M29.1329,-665.2693C34.3855,-726.7231 53.9436,-924.9098 91.3277,-975 95.104,-980.0598 99.9152,-984.3901 105.178,-988.0773"/>
<polygon fill="#000000" stroke="#000000" points="103.3872,-991.085 113.736,-993.3546 107.0613,-985.1267 103.3872,-991.085"/>
</g>
<!-- :servicecards -->
<g id="node37" class="node">
<title>:servicecards</title>
<ellipse fill="none" stroke="#000000" cx="152.7628" cy="-877" rx="61.3703" ry="18"/>
<text text-anchor="middle" x="152.7628" y="-872.8" font-family="Times,serif" font-size="14.00" fill="#000000">:servicecards</text>
</g>
<!-- :app&#45;&gt;:servicecards -->
<g id="edge39" class="edge">
<title>:app-&gt;:servicecards</title>
<path fill="none" stroke="#000000" d="M28.9404,-665.0399C32.4836,-702.6889 45.4566,-790.6329 91.3277,-845 95.3991,-849.8255 100.3844,-854.0176 105.7375,-857.6332"/>
<polygon fill="#000000" stroke="#000000" points="104.0042,-860.6751 114.3737,-862.8484 107.6227,-854.683 104.0042,-860.6751"/>
</g>
<!-- :branding:peoplecar:demo -->
<g id="node2" class="node">
<title>:branding:peoplecar:demo</title>
<ellipse fill="none" stroke="#ff0000" stroke-width="2" cx="595.4884" cy="-87" rx="112.3033" ry="18"/>
<text text-anchor="middle" x="595.4884" y="-82.8" font-family="Times,serif" font-size="14.00" fill="#000000">:branding:peoplecar:demo</text>
</g>
<!-- :branding:peoplecar:themes -->
<g id="node7" class="node">
<title>:branding:peoplecar:themes</title>
<ellipse fill="none" stroke="#000000" cx="862.189" cy="-91" rx="118.0985" ry="18"/>
<text text-anchor="middle" x="862.189" y="-86.8" font-family="Times,serif" font-size="14.00" fill="#000000">:branding:peoplecar:themes</text>
</g>
<!-- :branding:peoplecar:demo&#45;&gt;:branding:peoplecar:themes -->
<g id="edge71" class="edge">
<title>:branding:peoplecar:demo-&gt;:branding:peoplecar:themes</title>
<path fill="none" stroke="#000000" d="M707.4342,-88.679C716.2378,-88.811 725.1692,-88.945 734.0694,-89.0785"/>
<polygon fill="#000000" stroke="#000000" points="734.045,-92.5784 744.0964,-89.2288 734.15,-85.5792 734.045,-92.5784"/>
</g>
<!-- :design:themes -->
<g id="node8" class="node">
<title>:design:themes</title>
<ellipse fill="none" stroke="#000000" cx="1129.9578" cy="-245" rx="68.9371" ry="18"/>
<text text-anchor="middle" x="1129.9578" y="-240.8" font-family="Times,serif" font-size="14.00" fill="#000000">:design:themes</text>
</g>
<!-- :branding:peoplecar:demo&#45;&gt;:design:themes -->
<g id="edge72" class="edge">
<title>:branding:peoplecar:demo-&gt;:design:themes</title>
<path fill="none" stroke="#000000" d="M663.9119,-101.3938C766.3694,-123.082 950.8496,-162.7043 980.4881,-173 1019.7703,-186.6457 1062.2847,-207.8001 1091.8917,-223.6538"/>
<polygon fill="#000000" stroke="#000000" points="1090.5696,-226.9179 1101.0303,-228.5986 1093.9009,-220.7614 1090.5696,-226.9179"/>
</g>
<!-- :announcements&#45;&gt;:common -->
<g id="edge1" class="edge">
<title>:announcements-&gt;:common</title>
<path fill="none" stroke="#000000" d="M408.7218,-958.382C422.5684,-953.6604 436.362,-946.8427 447.0868,-937 545.436,-846.7395 580.9417,-680.7206 591.5713,-614.4306"/>
<polygon fill="#000000" stroke="#000000" points="595.066,-614.732 593.1219,-604.3171 588.1468,-613.6711 595.066,-614.732"/>
</g>
<!-- :api -->
<g id="node5" class="node">
<title>:api</title>
<ellipse fill="none" stroke="#000000" cx="862.189" cy="-586" rx="27" ry="18"/>
<text text-anchor="middle" x="862.189" y="-581.8" font-family="Times,serif" font-size="14.00" fill="#000000">:api</text>
</g>
<!-- :common&#45;&gt;:api -->
<g id="edge2" class="edge">
<title>:common-&gt;:api</title>
<path fill="none" stroke="#000000" d="M643.1691,-586C695.1259,-586 777.1726,-586 824.7161,-586"/>
<polygon fill="#000000" stroke="#000000" points="824.8833,-589.5001 834.8833,-586 824.8832,-582.5001 824.8833,-589.5001"/>
</g>
<!-- :models -->
<g id="node6" class="node">
<title>:models</title>
<ellipse fill="none" stroke="#000000" cx="1129.9578" cy="-563" rx="41.7308" ry="18"/>
<text text-anchor="middle" x="1129.9578" y="-558.8" font-family="Times,serif" font-size="14.00" fill="#000000">:models</text>
</g>
<!-- :common&#45;&gt;:models -->
<g id="edge3" class="edge">
<title>:common-&gt;:models</title>
<path fill="none" stroke="#000000" d="M636.161,-576.5583C665.8313,-570.1718 707.1155,-562.3181 743.89,-559 863.4384,-548.2133 1004.6477,-554.4749 1078.715,-559.2118"/>
<polygon fill="#000000" stroke="#000000" points="1078.5035,-562.7054 1088.7114,-559.8682 1078.9622,-555.7204 1078.5035,-562.7054"/>
</g>
<!-- :common&#45;&gt;:branding:peoplecar:themes -->
<g id="edge4" class="edge">
<title>:common-&gt;:branding:peoplecar:themes</title>
<path fill="none" stroke="#000000" d="M605.1379,-568.0903C645.2791,-493.5878 799.1922,-207.923 847.5562,-118.1587"/>
<polygon fill="#000000" stroke="#000000" points="850.7499,-119.61 852.412,-109.1464 844.5875,-116.2897 850.7499,-119.61"/>
</g>
<!-- :common&#45;&gt;:design:themes -->
<g id="edge5" class="edge">
<title>:common-&gt;:design:themes</title>
<path fill="none" stroke="#000000" d="M619.8422,-570.4618C705.6766,-515.6982 994.3609,-331.513 1094.9997,-267.3038"/>
<polygon fill="#000000" stroke="#000000" points="1097.0395,-270.1541 1103.5873,-261.8248 1093.2744,-264.2529 1097.0395,-270.1541"/>
</g>
<!-- :common&#45;&gt;:firebase:analytics -->
<g id="edge6" class="edge">
<title>:common-&gt;:firebase:analytics</title>
<path fill="none" stroke="#000000" d="M637.4537,-594.4969C678.8995,-602.8886 743.0383,-615.875 792.204,-625.8298"/>
<polygon fill="#000000" stroke="#000000" points="791.6444,-629.2875 802.1401,-627.8416 793.0336,-622.4267 791.6444,-629.2875"/>
</g>
<!-- :api&#45;&gt;:models -->
<g id="edge7" class="edge">
<title>:api-&gt;:models</title>
<path fill="none" stroke="#000000" d="M889.3377,-583.6681C933.6471,-579.8621 1022.2169,-572.2544 1078.6572,-567.4065"/>
<polygon fill="#000000" stroke="#000000" points="1079.1402,-570.878 1088.804,-566.5349 1078.5411,-563.9036 1079.1402,-570.878"/>
</g>
<!-- :branding:peoplecar:themes&#45;&gt;:design:themes -->
<g id="edge8" class="edge">
<title>:branding:peoplecar:themes-&gt;:design:themes</title>
<path fill="none" stroke="#000000" d="M927.4551,-106.1295C945.1913,-111.4943 964.0327,-118.3945 980.4881,-127 1028.6911,-152.2081 1076.6744,-193.7552 1104.8095,-220.2266"/>
<polygon fill="#000000" stroke="#000000" points="1102.5471,-222.9052 1112.2024,-227.267 1107.3745,-217.8361 1102.5471,-222.9052"/>
</g>
<!-- :branding:peoplecar:assets -->
<g id="node10" class="node">
<title>:branding:peoplecar:assets</title>
<ellipse fill="none" stroke="#000000" cx="1129.9578" cy="-64" rx="113.4393" ry="18"/>
<text text-anchor="middle" x="1129.9578" y="-59.8" font-family="Times,serif" font-size="14.00" fill="#000000">:branding:peoplecar:assets</text>
</g>
<!-- :branding:peoplecar:themes&#45;&gt;:branding:peoplecar:assets -->
<g id="edge9" class="edge">
<title>:branding:peoplecar:themes-&gt;:branding:peoplecar:assets</title>
<path fill="none" stroke="#000000" d="M961.1355,-81.0229C981.6201,-78.9574 1003.278,-76.7735 1024.0016,-74.6839"/>
<polygon fill="#000000" stroke="#000000" points="1024.4923,-78.1523 1034.0907,-73.6666 1023.79,-71.1876 1024.4923,-78.1523"/>
</g>
<!-- :branding:peoplecar:colors -->
<g id="node11" class="node">
<title>:branding:peoplecar:colors</title>
<ellipse fill="none" stroke="#000000" cx="1393.9709" cy="-18" rx="114.587" ry="18"/>
<text text-anchor="middle" x="1393.9709" y="-13.8" font-family="Times,serif" font-size="14.00" fill="#000000">:branding:peoplecar:colors</text>
</g>
<!-- :branding:peoplecar:themes&#45;&gt;:branding:peoplecar:colors -->
<g id="edge10" class="edge">
<title>:branding:peoplecar:themes-&gt;:branding:peoplecar:colors</title>
<path fill="none" stroke="#000000" d="M900.9649,-73.9403C931.6608,-61.2978 975.964,-44.9395 1016.4881,-37 1100.1298,-20.6129 1196.0735,-15.9636 1270.3027,-15.3596"/>
<polygon fill="#000000" stroke="#000000" points="1270.6494,-18.8578 1280.6292,-15.3004 1270.6092,-11.8579 1270.6494,-18.8578"/>
</g>
<!-- :branding:peoplecar:fonts -->
<g id="node12" class="node">
<title>:branding:peoplecar:fonts</title>
<ellipse fill="none" stroke="#000000" cx="1129.9578" cy="-118" rx="110.0141" ry="18"/>
<text text-anchor="middle" x="1129.9578" y="-113.8" font-family="Times,serif" font-size="14.00" fill="#000000">:branding:peoplecar:fonts</text>
</g>
<!-- :branding:peoplecar:themes&#45;&gt;:branding:peoplecar:fonts -->
<g id="edge11" class="edge">
<title>:branding:peoplecar:themes-&gt;:branding:peoplecar:fonts</title>
<path fill="none" stroke="#000000" d="M961.1355,-100.9771C982.2276,-103.1039 1004.5637,-105.3561 1025.843,-107.5018"/>
<polygon fill="#000000" stroke="#000000" points="1025.5636,-110.9913 1035.8644,-108.5123 1026.266,-104.0266 1025.5636,-110.9913"/>
</g>
<!-- :design:assets -->
<g id="node13" class="node">
<title>:design:assets</title>
<ellipse fill="none" stroke="#000000" cx="1393.9709" cy="-110" rx="64.2785" ry="18"/>
<text text-anchor="middle" x="1393.9709" y="-105.8" font-family="Times,serif" font-size="14.00" fill="#000000">:design:assets</text>
</g>
<!-- :design:themes&#45;&gt;:design:assets -->
<g id="edge12" class="edge">
<title>:design:themes-&gt;:design:assets</title>
<path fill="none" stroke="#000000" d="M1148.6946,-227.6272C1175.5799,-203.6456 1227.5956,-160.6833 1279.4274,-137 1294.4318,-130.1441 1311.3658,-124.9271 1327.5197,-120.9971"/>
<polygon fill="#000000" stroke="#000000" points="1328.4913,-124.3651 1337.4527,-118.7132 1326.9227,-117.5431 1328.4913,-124.3651"/>
</g>
<!-- :design:assets&#45;animations -->
<g id="node14" class="node">
<title>:design:assets-animations</title>
<ellipse fill="none" stroke="#000000" cx="1393.9709" cy="-326" rx="109.9634" ry="18"/>
<text text-anchor="middle" x="1393.9709" y="-321.8" font-family="Times,serif" font-size="14.00" fill="#000000">:design:assets-animations</text>
</g>
<!-- :design:themes&#45;&gt;:design:assets&#45;animations -->
<g id="edge13" class="edge">
<title>:design:themes-&gt;:design:assets-animations</title>
<path fill="none" stroke="#000000" d="M1167.954,-260.1006C1197.9255,-271.6764 1240.9482,-287.5555 1279.4274,-299 1291.6776,-302.6435 1304.7804,-306.1185 1317.5875,-309.2898"/>
<polygon fill="#000000" stroke="#000000" points="1316.7606,-312.6907 1327.3046,-311.6535 1318.4152,-305.889 1316.7606,-312.6907"/>
</g>
<!-- :design:assets&#45;badges -->
<g id="node15" class="node">
<title>:design:assets-badges</title>
<ellipse fill="none" stroke="#000000" cx="1393.9709" cy="-272" rx="94.3369" ry="18"/>
<text text-anchor="middle" x="1393.9709" y="-267.8" font-family="Times,serif" font-size="14.00" fill="#000000">:design:assets-badges</text>
</g>
<!-- :design:themes&#45;&gt;:design:assets&#45;badges -->
<g id="edge14" class="edge">
<title>:design:themes-&gt;:design:assets-badges</title>
<path fill="none" stroke="#000000" d="M1194.2051,-251.5704C1226.1568,-254.838 1265.3751,-258.8488 1300.5767,-262.4488"/>
<polygon fill="#000000" stroke="#000000" points="1300.5687,-265.9661 1310.8729,-263.5018 1301.2809,-259.0025 1300.5687,-265.9661"/>
</g>
<!-- :design:assets&#45;icons -->
<g id="node16" class="node">
<title>:design:assets-icons</title>
<ellipse fill="none" stroke="#000000" cx="1393.9709" cy="-218" rx="87.9742" ry="18"/>
<text text-anchor="middle" x="1393.9709" y="-213.8" font-family="Times,serif" font-size="14.00" fill="#000000">:design:assets-icons</text>
</g>
<!-- :design:themes&#45;&gt;:design:assets&#45;icons -->
<g id="edge15" class="edge">
<title>:design:themes-&gt;:design:assets-icons</title>
<path fill="none" stroke="#000000" d="M1194.2051,-238.4296C1227.5496,-235.0195 1268.808,-230.8001 1305.1562,-227.0829"/>
<polygon fill="#000000" stroke="#000000" points="1305.6753,-230.5481 1315.2673,-226.0488 1304.9631,-223.5844 1305.6753,-230.5481"/>
</g>
<!-- :design:assets&#45;illustrations -->
<g id="node17" class="node">
<title>:design:assets-illustrations</title>
<ellipse fill="none" stroke="#000000" cx="1393.9709" cy="-164" rx="112.908" ry="18"/>
<text text-anchor="middle" x="1393.9709" y="-159.8" font-family="Times,serif" font-size="14.00" fill="#000000">:design:assets-illustrations</text>
</g>
<!-- :design:themes&#45;&gt;:design:assets&#45;illustrations -->
<g id="edge16" class="edge">
<title>:design:themes-&gt;:design:assets-illustrations</title>
<path fill="none" stroke="#000000" d="M1167.954,-229.8994C1197.9255,-218.3236 1240.9482,-202.4445 1279.4274,-191 1291.403,-187.4382 1304.1933,-184.0374 1316.7257,-180.9239"/>
<polygon fill="#000000" stroke="#000000" points="1317.8149,-184.2609 1326.7007,-178.491 1316.1561,-177.4603 1317.8149,-184.2609"/>
</g>
<!-- :design:component&#45;attrs -->
<g id="node18" class="node">
<title>:design:component-attrs</title>
<ellipse fill="none" stroke="#000000" cx="1684.2597" cy="-110" rx="104.2323" ry="18"/>
<text text-anchor="middle" x="1684.2597" y="-105.8" font-family="Times,serif" font-size="14.00" fill="#000000">:design:component-attrs</text>
</g>
<!-- :design:themes&#45;&gt;:design:component&#45;attrs -->
<g id="edge17" class="edge">
<title>:design:themes-&gt;:design:component-attrs</title>
<path fill="none" stroke="#000000" d="M1139.574,-262.8382C1159.8671,-298.3365 1210.8989,-376.9867 1279.4274,-407 1372.6913,-447.8466 1420.0672,-457.4348 1508.5144,-407 1612.5728,-347.6633 1661.2891,-199.8554 1677.6366,-137.9588"/>
<polygon fill="#000000" stroke="#000000" points="1681.0678,-138.668 1680.1532,-128.1127 1674.2858,-136.9345 1681.0678,-138.668"/>
</g>
<!-- :design:fonts -->
<g id="node19" class="node">
<title>:design:fonts</title>
<ellipse fill="none" stroke="#000000" cx="1393.9709" cy="-380" rx="60.8525" ry="18"/>
<text text-anchor="middle" x="1393.9709" y="-375.8" font-family="Times,serif" font-size="14.00" fill="#000000">:design:fonts</text>
</g>
<!-- :design:themes&#45;&gt;:design:fonts -->
<g id="edge18" class="edge">
<title>:design:themes-&gt;:design:fonts</title>
<path fill="none" stroke="#000000" d="M1148.6946,-262.3728C1175.5799,-286.3544 1227.5956,-329.3167 1279.4274,-353 1295.117,-360.169 1312.9166,-365.546 1329.7278,-369.5334"/>
<polygon fill="#000000" stroke="#000000" points="1328.9647,-372.9491 1339.4884,-371.7235 1330.4973,-366.1189 1328.9647,-372.9491"/>
</g>
<!-- :firebase:analytics&#45;&gt;:models -->
<g id="edge19" class="edge">
<title>:firebase:analytics-&gt;:models</title>
<path fill="none" stroke="#000000" d="M921.4471,-627.6756C940.4083,-623.4122 961.4225,-618.3506 980.4881,-613 1017.4126,-602.6375 1058.7079,-588.6346 1088.5204,-578.0835"/>
<polygon fill="#000000" stroke="#000000" points="1089.9213,-581.3 1098.1676,-574.6479 1087.5729,-574.7057 1089.9213,-581.3"/>
</g>
<!-- :branding:peoplecar:assets&#45;&gt;:branding:peoplecar:colors -->
<g id="edge66" class="edge">
<title>:branding:peoplecar:assets-&gt;:branding:peoplecar:colors</title>
<path fill="none" stroke="#000000" d="M1206.676,-50.6331C1238.134,-45.152 1274.7051,-38.7801 1307.1388,-33.1291"/>
<polygon fill="#000000" stroke="#000000" points="1307.8106,-36.5649 1317.0614,-31.4002 1306.609,-29.6687 1307.8106,-36.5649"/>
</g>
<!-- :branding:peoplecar:assets&#45;&gt;:design:component&#45;attrs -->
<g id="edge65" class="edge">
<title>:branding:peoplecar:assets-&gt;:design:component-attrs</title>
<path fill="none" stroke="#000000" d="M1242.4087,-66.6313C1317.8328,-69.136 1419.3156,-73.9337 1508.5144,-83 1538.871,-86.0855 1571.9863,-90.8136 1601.2043,-95.4558"/>
<polygon fill="#000000" stroke="#000000" points="1600.9364,-98.9577 1611.3656,-97.0914 1602.0489,-92.0466 1600.9364,-98.9577"/>
</g>
<!-- :branding:peoplecar:colors&#45;&gt;:design:component&#45;attrs -->
<g id="edge67" class="edge">
<title>:branding:peoplecar:colors-&gt;:design:component-attrs</title>
<path fill="none" stroke="#000000" d="M1452.1351,-33.563C1470.2587,-38.5961 1490.2726,-44.3429 1508.5144,-50 1549.3281,-62.6569 1594.9885,-78.2908 1629.537,-90.4265"/>
<polygon fill="#000000" stroke="#000000" points="1628.3788,-93.7292 1638.9736,-93.7512 1630.7049,-87.127 1628.3788,-93.7292"/>
</g>
<!-- :branding:peoplecar:colors&#45;brand -->
<g id="node39" class="node">
<title>:branding:peoplecar:colors-brand</title>
<ellipse fill="none" stroke="#000000" cx="1684.2597" cy="-18" rx="139.9909" ry="18"/>
<text text-anchor="middle" x="1684.2597" y="-13.8" font-family="Times,serif" font-size="14.00" fill="#000000">:branding:peoplecar:colors-brand</text>
</g>
<!-- :branding:peoplecar:colors&#45;&gt;:branding:peoplecar:colors&#45;brand -->
<g id="edge68" class="edge">
<title>:branding:peoplecar:colors-&gt;:branding:peoplecar:colors-brand</title>
<path fill="none" stroke="#000000" d="M1508.7007,-18C1517.1298,-18 1525.7021,-18 1534.297,-18"/>
<polygon fill="#000000" stroke="#000000" points="1534.3898,-21.5001 1544.3897,-18 1534.3897,-14.5001 1534.3898,-21.5001"/>
</g>
<!-- :design:assets&#45;&gt;:design:component&#45;attrs -->
<g id="edge69" class="edge">
<title>:design:assets-&gt;:design:component-attrs</title>
<path fill="none" stroke="#000000" d="M1458.3954,-110C1491.1318,-110 1531.9009,-110 1569.7564,-110"/>
<polygon fill="#000000" stroke="#000000" points="1569.8273,-113.5001 1579.8273,-110 1569.8272,-106.5001 1569.8273,-113.5001"/>
</g>
<!-- :design:fonts&#45;&gt;:design:component&#45;attrs -->
<g id="edge70" class="edge">
<title>:design:fonts-&gt;:design:component-attrs</title>
<path fill="none" stroke="#000000" d="M1452.2654,-374.4747C1471.3763,-370.6006 1491.9405,-364.0509 1508.5144,-353 1591.7671,-297.4901 1649.0687,-188.3718 1672.4627,-137.4215"/>
<polygon fill="#000000" stroke="#000000" points="1675.7725,-138.5954 1676.687,-128.0402 1669.3897,-135.7213 1675.7725,-138.5954"/>
</g>
<!-- :camera&#45;&gt;:common -->
<g id="edge41" class="edge">
<title>:camera-&gt;:common</title>
<path fill="none" stroke="#000000" d="M387.9028,-832.5066C407.1716,-827.841 429.878,-819.9974 447.0868,-807 516.49,-754.5815 564.0504,-659.8015 584.3765,-613.269"/>
<polygon fill="#000000" stroke="#000000" points="587.6944,-614.4118 588.4088,-603.8411 581.2583,-611.6591 587.6944,-614.4118"/>
</g>
<!-- :onboarding&#45;&gt;:common -->
<g id="edge42" class="edge">
<title>:onboarding-&gt;:common</title>
<path fill="none" stroke="#000000" d="M200.9092,-794.9577C261.8405,-805.0259 368.3302,-814.0021 447.0868,-774 515.7047,-739.1476 562.6734,-656.4226 583.4302,-613.2644"/>
<polygon fill="#000000" stroke="#000000" points="586.7255,-614.4806 587.8014,-603.9405 580.3875,-611.5091 586.7255,-614.4806"/>
</g>
<!-- :onboarding&#45;&gt;:firebase:remoteconfig -->
<g id="edge43" class="edge">
<title>:onboarding-&gt;:firebase:remoteconfig</title>
<path fill="none" stroke="#000000" d="M201.9387,-775.46C222.8616,-771.4011 247.7709,-766.5687 271.071,-762.0486"/>
<polygon fill="#000000" stroke="#000000" points="271.7915,-765.4742 280.9419,-760.1337 270.4583,-758.6023 271.7915,-765.4742"/>
</g>
<!-- :auth&#45;&gt;:common -->
<g id="edge44" class="edge">
<title>:auth-&gt;:common</title>
<path fill="none" stroke="#000000" d="M376.4789,-647.2189C417.8512,-635.6543 496.1451,-613.7691 547.0447,-599.5413"/>
<polygon fill="#000000" stroke="#000000" points="548.1517,-602.8661 556.8402,-596.8032 546.2672,-596.1245 548.1517,-602.8661"/>
</g>
<!-- :profile&#45;&gt;:common -->
<g id="edge45" class="edge">
<title>:profile-&gt;:common</title>
<path fill="none" stroke="#000000" d="M191.021,-697.8947C248.2421,-703.8235 358.828,-709.8608 447.0868,-682 494.493,-667.0352 541.3312,-632.5641 569.3346,-609.2687"/>
<polygon fill="#000000" stroke="#000000" points="571.6904,-611.8601 577.0593,-602.7263 567.1664,-606.5185 571.6904,-611.8601"/>
</g>
<!-- :profile&#45;&gt;:auth -->
<g id="edge46" class="edge">
<title>:profile-&gt;:auth</title>
<path fill="none" stroke="#000000" d="M189.1472,-685.9415C223.4853,-679.2801 274.8002,-669.3251 309.8924,-662.5174"/>
<polygon fill="#000000" stroke="#000000" points="310.6279,-665.94 319.7783,-660.5995 309.2947,-659.0681 310.6279,-665.94"/>
</g>
<!-- :map&#45;&gt;:common -->
<g id="edge47" class="edge">
<title>:map-&gt;:common</title>
<path fill="none" stroke="#000000" d="M181.5894,-211.2999C238.4206,-201.7781 366.3958,-189.0423 447.0868,-248 551.7391,-324.4654 583.6583,-491.0631 592.4491,-557.6605"/>
<polygon fill="#000000" stroke="#000000" points="589.005,-558.328 593.7108,-567.8205 595.9517,-557.4653 589.005,-558.328"/>
</g>
<!-- :map&#45;&gt;:models -->
<g id="edge48" class="edge">
<title>:map-&gt;:models</title>
<path fill="none" stroke="#000000" d="M180.873,-210.0543C233.855,-198.1449 351.7377,-177.2898 447.0868,-201 723.6644,-269.7759 1011.3682,-473.618 1101.3477,-541.0591"/>
<polygon fill="#000000" stroke="#000000" points="1099.3385,-543.9276 1109.4311,-547.1508 1103.5513,-538.3372 1099.3385,-543.9276"/>
</g>
<!-- :map&#45;&gt;:rental -->
<g id="edge49" class="edge">
<title>:map-&gt;:rental</title>
<path fill="none" stroke="#000000" d="M176.4765,-205.4075C196.0167,-196.0707 224.5795,-182.9137 250.1979,-173 269.006,-165.7218 290.2414,-158.6755 308.162,-153.0564"/>
<polygon fill="#000000" stroke="#000000" points="309.2241,-156.3915 317.7405,-150.089 307.1526,-149.705 309.2241,-156.3915"/>
</g>
<!-- :rental&#45;&gt;:common -->
<g id="edge50" class="edge">
<title>:rental-&gt;:common</title>
<path fill="none" stroke="#000000" d="M374.4473,-153.8497C396.4047,-165.9376 427.4233,-185.9112 447.0868,-211 534.2322,-322.1899 576.1947,-491.0555 590.0629,-557.6123"/>
<polygon fill="#000000" stroke="#000000" points="586.7012,-558.6454 592.1208,-567.7491 593.5612,-557.2527 586.7012,-558.6454"/>
</g>
<!-- :xmarton&#45;library -->
<g id="node38" class="node">
<title>:xmarton-library</title>
<ellipse fill="none" stroke="#000000" cx="595.4884" cy="-141" rx="74.7168" ry="18"/>
<text text-anchor="middle" x="595.4884" y="-136.8" font-family="Times,serif" font-size="14.00" fill="#000000">:xmarton-library</text>
</g>
<!-- :rental&#45;&gt;:xmarton&#45;library -->
<g id="edge51" class="edge">
<title>:rental-&gt;:xmarton-library</title>
<path fill="none" stroke="#000000" d="M384.5359,-141C417.4024,-141 467.3298,-141 510.3628,-141"/>
<polygon fill="#000000" stroke="#000000" points="510.5672,-144.5001 520.5672,-141 510.5672,-137.5001 510.5672,-144.5001"/>
</g>
<!-- :packages&#45;&gt;:common -->
<g id="edge52" class="edge">
<title>:packages-&gt;:common</title>
<path fill="none" stroke="#000000" d="M396.2367,-567.4346C437.0925,-571.2414 496.0474,-576.7345 539.2298,-580.7581"/>
<polygon fill="#000000" stroke="#000000" points="539.0122,-584.2529 549.2938,-581.6958 539.6617,-577.2831 539.0122,-584.2529"/>
</g>
<!-- :firebase:firestore&#45;&gt;:common -->
<g id="edge53" class="edge">
<title>:firebase:firestore-&gt;:common</title>
<path fill="none" stroke="#000000" d="M400.6604,-522.6685C415.692,-526.7799 432.0862,-531.42 447.0868,-536 482.2456,-546.7347 521.6645,-560.0785 551.0348,-570.2805"/>
<polygon fill="#000000" stroke="#000000" points="549.9944,-573.6244 560.5893,-573.6116 552.2989,-567.0145 549.9944,-573.6244"/>
</g>
<!-- :firebase:remoteconfig&#45;&gt;:common -->
<g id="edge54" class="edge">
<title>:firebase:remoteconfig-&gt;:common</title>
<path fill="none" stroke="#000000" d="M406.7695,-732.3751C420.4468,-727.7881 434.6522,-722.036 447.0868,-715 497.3282,-686.5711 545.9475,-639.4132 573.1658,-610.6737"/>
<polygon fill="#000000" stroke="#000000" points="575.9861,-612.782 580.2588,-603.0869 570.8727,-608.0014 575.9861,-612.782"/>
</g>
<!-- :report&#45;&gt;:common -->
<g id="edge55" class="edge">
<title>:report-&gt;:common</title>
<path fill="none" stroke="#000000" d="M189.7479,-599.7469C266.9682,-597.1306 445.8009,-591.0716 538.0907,-587.9447"/>
<polygon fill="#000000" stroke="#000000" points="538.2193,-591.4424 548.095,-587.6057 537.9822,-584.4465 538.2193,-591.4424"/>
</g>
<!-- :report&#45;&gt;:auth -->
<g id="edge56" class="edge">
<title>:report-&gt;:auth</title>
<path fill="none" stroke="#000000" d="M185.1083,-609.917C219.7726,-619.4732 274.7258,-634.6227 311.2286,-644.6858"/>
<polygon fill="#000000" stroke="#000000" points="310.4322,-648.0967 321.0028,-647.3803 312.2926,-641.3485 310.4322,-648.0967"/>
</g>
<!-- :emailconfig&#45;&gt;:common -->
<g id="edge57" class="edge">
<title>:emailconfig-&gt;:common</title>
<path fill="none" stroke="#000000" d="M398.3991,-465.1055C414.3656,-469.2719 431.8505,-474.8369 447.0868,-482 492.9536,-503.5637 539.861,-539.1722 568.336,-562.6097"/>
<polygon fill="#000000" stroke="#000000" points="566.2873,-565.4584 576.211,-569.1695 570.7675,-560.0799 566.2873,-565.4584"/>
</g>
<!-- :phoneconfig&#45;&gt;:common -->
<g id="edge58" class="edge">
<title>:phoneconfig-&gt;:common</title>
<path fill="none" stroke="#000000" d="M402.4161,-410.0882C417.5612,-414.1177 433.5762,-419.8609 447.0868,-428 504.1433,-462.3722 553.2437,-524.7448 578.1142,-559.9672"/>
<polygon fill="#000000" stroke="#000000" points="575.3255,-562.0875 583.9053,-568.3035 581.0745,-558.0938 575.3255,-562.0875"/>
</g>
<!-- :personalinfoconfig&#45;&gt;:common -->
<g id="edge59" class="edge">
<title>:personalinfoconfig-&gt;:common</title>
<path fill="none" stroke="#000000" d="M415.5452,-358.5807C426.6894,-362.3577 437.6705,-367.3644 447.0868,-374 515.8568,-422.4623 563.4235,-513.4603 584.01,-558.835"/>
<polygon fill="#000000" stroke="#000000" points="580.8456,-560.3331 588.1035,-568.0515 587.243,-557.4916 580.8456,-560.3331"/>
</g>
<!-- :documents&#45;&gt;:common -->
<g id="edge60" class="edge">
<title>:documents-&gt;:common</title>
<path fill="none" stroke="#000000" d="M188.3287,-323.8837C246.8111,-303.1345 364.9765,-271.7849 447.0868,-320 536.5936,-372.5583 576.0869,-500.8957 589.6416,-557.9099"/>
<polygon fill="#000000" stroke="#000000" points="586.2369,-558.7224 591.8769,-567.6914 593.061,-557.1629 586.2369,-558.7224"/>
</g>
<!-- :payments&#45;&gt;:common -->
<g id="edge61" class="edge">
<title>:payments-&gt;:common</title>
<path fill="none" stroke="#000000" d="M195.8909,-261.3807C257.2298,-250.2522 370.6857,-239.3676 447.0868,-290 542.4673,-353.2105 579.2422,-497.074 590.884,-557.955"/>
<polygon fill="#000000" stroke="#000000" points="587.4766,-558.7799 592.7164,-567.9883 594.3627,-557.5222 587.4766,-558.7799"/>
</g>
<!-- :promocode&#45;&gt;:common -->
<g id="edge62" class="edge">
<title>:promocode-&gt;:common</title>
<path fill="none" stroke="#000000" d="M202.0348,-1070.2345C265.8852,-1079.2227 377.2779,-1084.3668 447.0868,-1028 514.3381,-973.6983 572.6642,-702.378 590.1516,-613.9279"/>
<polygon fill="#000000" stroke="#000000" points="593.5941,-614.5608 592.0796,-604.0747 586.7244,-613.2165 593.5941,-614.5608"/>
</g>
<!-- :forceupdate&#45;&gt;:common -->
<g id="edge63" class="edge">
<title>:forceupdate-&gt;:common</title>
<path fill="none" stroke="#000000" d="M196.5603,-1019.2573C258.7135,-1033.8359 373.1521,-1049.956 447.0868,-996 511.8841,-948.7122 571.1041,-698.7176 589.571,-614.0571"/>
<polygon fill="#000000" stroke="#000000" points="593.0249,-614.6439 591.7141,-604.1305 586.1825,-613.1667 593.0249,-614.6439"/>
</g>
<!-- :servicecards&#45;&gt;:common -->
<g id="edge64" class="edge">
<title>:servicecards-&gt;:common</title>
<path fill="none" stroke="#000000" d="M199.7488,-888.678C261.5839,-901.2384 371.29,-913.5625 447.0868,-866 538.9966,-808.3266 577.3709,-673.3291 590.1469,-614.3807"/>
<polygon fill="#000000" stroke="#000000" points="593.635,-614.7974 592.2417,-604.2945 586.7813,-613.3738 593.635,-614.7974"/>
</g>
</g>
</svg>